<svg aria-hidden="true" style="position: absolute; width: 0; height: 0; overflow: hidden;" version="1.1" xmlns="http://www.w3.org/2000/svg" xmlns:xlink="http://www.w3.org/1999/xlink">
<defs>
<symbol id="icon-location" viewBox="0 0 33 32">
<title>location</title>
<path d="M16.185 27.663c-1.23-1.817-2.463-3.546-3.6-5.334-2.035-3.2-3.91-6.488-4.918-10.184-1.277-4.67 0.425-8.997 4.407-11.042 3.089-1.585 6.19-1.458 9.099 0.434 2.881 1.873 4.236 4.623 4.091 8.069-0.089 2.19-0.839 4.206-1.73 6.176-1.813 4.017-4.193 7.694-6.794 11.237-0.136 0.186-0.301 0.349-0.555 0.644zM16.279 25.291c3.028-4.247 5.731-8.502 7.212-13.414 0.447-1.485 0.63-2.993 0.253-4.531-1.029-4.187-5.122-6.701-9.312-5.716-4.011 0.945-6.542 5.035-5.67 9.146 0.499 2.356 1.457 4.533 2.558 6.655 1.566 3.005 3.211 5.578 5.055 7.991l-0.096-0.131z"></path>
<path d="M9.966 22.329c-1.547 0-3.022-0.017-4.497 0.015-0.231 0.004-0.601 0.15-0.665 0.321-0.97 2.621-1.9 5.252-2.87 7.968h28.639c-0.416-1.184-0.81-2.327-1.213-3.463-0.501-1.414-1.030-2.821-1.503-4.245-0.161-0.482-0.407-0.62-0.898-0.609-1.445 0.033-2.891 0.014-4.36 0.014 0.479-1.373 0.479-1.373 1.783-1.373h4.201l3.953 11.057h-32.535c0.565-1.605 1.108-3.165 1.662-4.719 0.679-1.903 1.384-3.795 2.035-5.708 0.175-0.512 0.428-0.663 0.949-0.643 1.143 0.039 2.298 0.109 3.427-0.018 1.082-0.122 1.555 0.384 1.893 1.402zM16.251 5.647c1.911 0 3.49 1.551 3.497 3.438 0.010 1.882-1.573 3.46-3.475 3.464-0.024 0.001-0.051 0.001-0.079 0.001-1.906 0-3.452-1.545-3.452-3.452s1.545-3.452 3.452-3.452c0.020 0 0.040 0 0.060 0l-0.003-0zM18.351 9.109c0.006-1.176-0.96-2.148-2.114-2.129-1.142 0.036-2.057 0.957-2.085 2.097l-0 0.003c0 0.002 0 0.005 0 0.007 0 1.164 0.944 2.108 2.108 2.108 0.008 0 0.017-0 0.025-0h-0.001c1.142-0.005 2.067-0.932 2.067-2.075 0-0.004 0-0.008-0-0.012v0.001z"></path>
</symbol>
<symbol id="icon-mail" viewBox="0 0 50 32">
<title>mail</title>
<path d="M0.010 3.885l1.783 1.36c3.181 2.432 6.362 4.859 9.54 7.293 2.567 1.966 5.125 3.937 7.69 5.905 1.918 1.469 3.844 2.937 5.76 4.412 0.203 0.159 0.332 0.125 0.514-0.018 1.779-1.372 3.564-2.74 5.347-4.106 2.005-1.537 4.013-3.068 6.020-4.606l13.017-9.969c0.093-0.073 0.195-0.133 0.336-0.23 0.012 0.153 0.030 0.262 0.030 0.375v24.255c-0.002 1.281-0.995 2.907-2.041 3.296-0.259 0.087-0.556 0.137-0.866 0.137-0.038 0-0.075-0.001-0.113-0.002l0.005 0c-14.653 0.006-29.304-0.002-43.957 0.022-1.001 0-1.656-0.439-2.218-1.165-0.608-0.792-0.86-1.666-0.858-2.674 0.018-7.9 0.010-15.797 0.010-23.697v-0.59z"></path>
<path d="M25.021-0.008c7.273 0 14.546 0 21.817 0.004 0.453 0 0.909 0.016 1.354 0.083 0.183 0.028 0.403 0.173 0.49 0.328 0.042 0.081-0.135 0.347-0.272 0.455-1.978 1.567-3.957 3.135-5.958 4.676-1.811 1.396-3.649 2.758-5.47 4.14-1.813 1.372-3.624 2.75-5.436 4.122-2.057 1.559-4.12 3.107-6.171 4.674-0.252 0.195-0.415 0.214-0.679 0.012-2.438-1.874-4.886-3.729-7.33-5.591l-7.33-5.587c-2.357-1.797-4.723-3.586-7.078-5.387-0.554-0.431-1.033-0.832-1.498-1.247l0.028 0.024c-0.278-0.246-0.226-0.461 0.129-0.582 0.173-0.058 0.363-0.085 0.548-0.097 0.357-0.020 0.717-0.026 1.078-0.026l21.777-0.002z"></path>
</symbol>
<symbol id="icon-phone" viewBox="0 0 34 32">
<title>phone</title>
<path d="M34.136 11.013c-0.027 0.082-0.059 0.163-0.082 0.248-0.255 0.924-1.025 1.538-1.975 1.544-1.433 0.010-2.866 0.013-4.299 0.001-1.132-0.009-2.093-0.926-2.101-2.038-0.024-2.583-1.401-4.272-3.563-5.427-1.258-0.671-2.639-0.905-4.049-0.965-1.738-0.074-3.466-0.020-5.131 0.573-1.549 0.553-2.788 1.492-3.656 2.902-0.466 0.736-0.744 1.63-0.749 2.589v0.001c-0.013 1.516-0.875 2.37-2.386 2.367-1.166-0.003-2.333-0.003-3.499 0-1.579 0.003-2.089-0.343-2.645-1.796v-3.134c0.175-0.97 0.644-1.809 1.311-2.442l0.002-0.002c1.050-0.997 2.157-1.919 3.388-2.685 2.319-1.439 4.886-2.135 7.564-2.457 1.441-0.181 3.108-0.284 4.8-0.284 1.809 0 3.591 0.118 5.338 0.347l-0.206-0.022c3.994 0.498 7.482 2.049 10.386 4.865 0.605 0.586 1.147 1.208 1.385 2.041 0.065 0.234 0.114 0.471 0.17 0.707v3.067z"></path>
<path d="M10.671 12.816c0-0.867 0.014-1.687-0.005-2.508-0.013-0.609 0.253-1.044 0.74-1.367 0.801-0.531 2.016-0.527 2.81 0.013 0.472 0.32 0.73 0.753 0.718 1.344-0.014 0.8-0.003 1.6-0.001 2.4 0 0.022 0.009 0.042 0.018 0.091h4.239c0.005-0.098 0.017-0.205 0.017-0.311l0.001-2.033c0.001-0.939 0.401-1.489 1.302-1.767 0.772-0.239 1.517-0.172 2.209 0.259 0.496 0.308 0.764 0.749 0.753 1.357-0.014 0.821-0.004 1.644-0.004 2.522 0.314 0 0.618 0.006 0.925-0.001 0.822-0.018 1.459 0.315 1.926 0.988 1.835 2.624 3.55 5.318 4.779 8.291 0.611 1.471 0.98 2.985 0.91 4.598-0.041 1.021-0.006 2.046-0.006 3.067 0 1.331-0.906 2.25-2.232 2.251h-25.397c-1.33 0-2.231-0.912-2.232-2.247-0.001-1.145 0.029-2.291-0.010-3.433-0.041-1.17 0.22-2.266 0.644-3.338 0.938-2.365 2.203-4.553 3.525-6.712 0.499-0.814 1.023-1.613 1.539-2.416 0.457-0.713 1.11-1.063 1.959-1.045 0.274 0.005 0.55 0 0.874 0zM17.085 17.074c-0.003 0-0.007 0-0.012 0-3.539 0-6.407 2.869-6.407 6.407 0 0.002 0 0.004 0 0.005v-0c-0.005 3.502 2.874 6.39 6.373 6.395 0.007 0 0.016 0 0.024 0 3.54 0 6.41-2.87 6.41-6.41 0-0.008 0-0.015-0-0.023v0.001c-0.003-3.499-2.885-6.378-6.388-6.375z"></path>
<path d="M21.33 23.503c-0.017 2.344-1.921 4.237-4.267 4.237-0.007 0-0.014-0-0.020-0h0.001c-2.339-0.006-4.251-1.941-4.235-4.289 0.014-2.363 1.937-4.246 4.322-4.234 2.315 0.012 4.211 1.946 4.2 4.287z"></path>
</symbol>
<symbol id="icon-intro01" viewBox="0 0 52 32">
<title>intro01</title>
<path d="M10.832 19.943c-0.122 0.269-0.239 0.42-0.259 0.586-0.684 5.062-4.71 7.71-7.895 10.954-0.635 0.645-1.466 0.723-2.14 0.039-0.748-0.752-0.689-1.642 0.010-2.379 1.344-1.417 2.795-2.736 4.104-4.177 0.537-0.586 0.977-1.358 1.202-2.12 1.388-4.764 2.751-9.527 4.016-14.325 0.86-3.249 3.532-3.151 5.55-1.588 1.128 0.878 2.132 1.776 3.073 2.736l0.005 0.005c0.57 0.641 1.397 1.043 2.318 1.043 0.144 0 0.285-0.010 0.424-0.029l-0.016 0.002c0.528-0.054 1.065-0.044 1.593 0 1.006 0.083 1.871-0.020 2.076-1.319l2.912 0.62c1.588 0.347 2.492-0.586 2.135-2.199l-0.557-2.594c-0.010-0.044 0.005-0.088 0.024-0.313l4.847-2.032c0.533 0.831 1.026 1.612 1.529 2.384 1.041 1.617 2.164 1.632 3.176 0.049l1.563-2.443c1.471 0.601 2.917 1.143 4.309 1.788 0.264 0.122 0.479 0.689 0.449 1.026-0.078 0.787-0.332 1.559-0.489 2.34-0.269 1.392 0.645 2.277 2.023 1.979l3.097-0.684 2.062 4.925-2.521 1.632c-1.397 0.909-1.383 2.15 0.034 3.054l2.501 1.588c-0.606 1.475-1.129 2.883-1.773 4.231-0.142 0.293-0.733 0.542-1.094 0.518-0.743-0.049-1.466-0.308-2.203-0.454-1.466-0.293-2.374 0.635-2.067 2.101 0.205 0.948 0.425 1.896 0.669 2.99l-4.92 2.076-1.622-2.506c-0.894-1.368-2.174-1.348-3.078 0.049l-1.573 2.467-4.935-2.023 0.62-2.917c0.322-1.495-0.655-2.492-2.15-2.169-0.865 0.181-1.73 0.381-2.589 0.567-0.083 0.020-0.176-0.015-0.386-0.039l-2.018-4.773 2.462-1.617c1.397-0.914 1.417-2.189 0.039-3.078-0.523-0.332-1.104-0.606-1.559-1.011-0.405-0.366-0.684-0.879-1.207-1.583-0.972 0-2.418 0.274-3.698-0.078-1.256-0.342-2.34-1.319-3.615-2.096-0.503 1.876-1.026 3.689-1.451 5.526-0.068 0.308 0.235 0.801 0.508 1.060 0.997 0.948 2.135 1.754 3.054 2.77 0.65 0.718 1.275 1.642 1.466 2.565 0.445 2.208 0.645 4.47 0.909 6.713 0.112 0.967 0.078 2.008-1.173 2.15-1.158 0.132-1.617-0.733-1.798-1.734-0.357-1.959-0.674-3.928-1.036-5.892-0.068-0.371-0.156-0.855-0.415-1.055-1.466-1.129-2.99-2.189-4.524-3.298zM43.224 17.422c0-0.013 0-0.029 0-0.044 0-3.195-2.59-5.785-5.785-5.785-0.009 0-0.017 0-0.026 0h0.001c-0.002 0-0.003 0-0.005 0-3.173 0-5.749 2.557-5.779 5.723l-0 0.003c-0.001 0.036-0.001 0.079-0.001 0.122 0 3.178 2.574 5.755 5.751 5.76h0c0.029 0.001 0.063 0.001 0.098 0.001 3.173 0 5.746-2.572 5.746-5.746 0-0.012-0-0.025-0-0.037v0.002z"></path>
<path d="M14.774 5.383c-1.487-0.014-2.687-1.222-2.687-2.711 0-0.003 0-0.007 0-0.010v0.001c0.024-1.466 1.29-2.682 2.765-2.663 1.49 0.027 2.687 1.242 2.687 2.736 0 0 0 0 0 0v-0c-0.032 1.47-1.232 2.649-2.706 2.649-0.021 0-0.042-0-0.062-0.001l0.003 0z"></path>
</symbol>
<symbol id="icon-intro03" viewBox="0 0 43 32">
<title>intro03</title>
<path d="M29.472 8.629c2.148 2.108 4.252 4.133 6.3 6.221 0.281 0.263 0.455 0.636 0.455 1.050s-0.175 0.787-0.455 1.049l-0.001 0.001c-1.256 1.268-2.607 2.441-4.113 3.832-0.206-0.265-0.507-0.737-0.888-1.129-1.91-1.934-3.317-1.791-4.747 0.472-1.161-0.527-2.259-0.575-3.194 0.476-0.048 0.055-0.119 0.159-0.151 0.151-1.609-0.483-1.957 1.094-2.774 1.791-1.529 1.308-2.881 2.821-4.319 4.24-0.856 0.844-1.791 0.991-2.417 0.408-0.662-0.618-0.535-1.597 0.357-2.496 1.914-1.926 3.844-3.828 5.742-5.769 0.222-0.23 0.265-0.638 0.396-0.967-0.329 0.135-0.733 0.19-0.971 0.42-1.656 1.605-3.281 3.249-4.913 4.878-0.559 0.555-1.272 0.777-1.874 0.281-0.38-0.309-0.586-0.955-0.65-1.478-0.032-0.285 0.349-0.686 0.634-0.923 0.579-0.483 1.288-0.82 1.823-1.347 2.71-2.629 5.293-5.214 7.835-7.839l0.090-0.094c0.967-1.014 1.981-1.553 3.376-1.359 0.321 0.048 0.658-0.012 0.991 0.012 1.533 0.099 2.837-0.246 3.467-1.878z"></path>
<path d="M21.623 6.616c1.652 0 3.301-0.012 4.953 0.008 1.205 0.016 1.973 0.598 1.985 1.458 0.016 0.876-0.737 1.466-1.942 1.506-0.040 0.004-0.075 0.012-0.111 0-2.932-0.547-4.969 0.785-6.851 2.912-2.179 2.465-4.628 4.699-6.966 7.029-0.991 0.983-1.613 0.983-2.611 0.004-0.888-0.872-1.775-1.751-2.643-2.643-0.876-0.903-0.876-1.545 0.016-2.457 2.152-2.203 4.327-4.386 6.479-6.589 0.716-0.744 1.721-1.207 2.834-1.207 0.046 0 0.091 0.001 0.137 0.002l-0.007-0h4.731v-0.020zM10.734-0.001c0.404 0.333 0.836 0.559 1.090 0.911 0.872 1.228 1.68 2.492 2.496 3.748 0.448 0.682 0.349 1.327-0.214 1.894-2.512 2.52-5.024 5.032-7.544 7.54-0.567 0.567-1.22 0.622-1.902 0.19-1.268-0.804-2.54-1.601-3.8-2.417-1.030-0.674-1.149-1.49-0.277-2.354 2.964-2.944 5.948-5.868 8.947-8.785 0.293-0.285 0.721-0.44 1.205-0.729zM3.919 10.111c-0.428 0.586-0.884 0.943-0.828 1.201 0.067 0.353 0.519 0.63 0.808 0.939 0.269-0.289 0.721-0.555 0.761-0.876 0.040-0.297-0.357-0.65-0.737-1.264zM37.334 15.076c-0.368-0.23-0.816-0.408-1.133-0.721-2.453-2.421-4.878-4.87-7.319-7.303-0.674-0.674-0.745-1.363-0.19-2.16 0.792-1.141 1.529-2.322 2.31-3.479 0.689-1.014 1.49-1.133 2.37-0.285 3 2.912 5.983 5.837 8.951 8.781 0.872 0.864 0.753 1.692-0.269 2.358-0.39 0.29-1.63 1.086-2.879 1.871l-0.925 0.542c-0.238 0.147-0.523 0.23-0.911 0.396zM40.25 11.846c-0.523-0.424-0.852-0.888-1.109-0.852-0.357 0.052-0.654 0.476-0.979 0.741 0.289 0.305 0.539 0.773 0.892 0.868 0.242 0.067 0.626-0.372 1.197-0.753zM24.63 20.496c0.515 0.317 0.963 0.499 1.292 0.812 1.014 0.951 1.997 1.942 2.964 2.948 0.777 0.808 0.844 1.751 0.218 2.334-0.618 0.575-1.466 0.507-2.259-0.25-1.054-1.014-2.148-2.013-3.071-3.142-0.345-0.424-0.42-1.228-0.309-1.799 0.067-0.349 0.725-0.582 1.165-0.903zM22.55 23.73c0.963 0.032 4.291 3.332 4.355 4.315 0.079 1.173-1.133 2.017-2.068 1.276-1.32-1.053-2.476-2.22-3.484-3.508l-0.035-0.046c-0.689-0.884 0.135-2.076 1.232-2.037z"></path>
<path d="M22.344 21.217v1.498c-2.14 0.713-2.623 1.874-1.704 3.899-0.792 0.951-1.502 1.882-2.298 2.734-0.844 0.895-1.763 0.983-2.397 0.349-0.618-0.614-0.499-1.565 0.337-2.413 1.973-1.989 3.962-3.966 6.062-6.066zM32.25 23.107c-0.262 0.325-0.507 0.903-0.923 1.078-0.424 0.178-1.161 0.147-1.498-0.119-0.935-0.719-1.745-1.536-2.433-2.448l-0.023-0.032c-0.289-0.396-0.265-1.371 0.040-1.736 0.301-0.369 1.359-0.61 1.68-0.369 1.062 0.8 1.95 1.839 2.881 2.809 0.135 0.139 0.143 0.396 0.277 0.816zM24.349 30.985c-0.135 0.194-0.317 0.777-0.654 0.892-0.491 0.17-1.216 0.186-1.625-0.071-0.714-0.466-1.304-1.059-1.753-1.752l-0.014-0.023c-0.258-0.408-0.25-1.141-0.067-1.621 0.119-0.317 0.745-0.594 1.161-0.622 0.959-0.071 2.92 1.961 2.952 3.198z"></path>
</symbol>
<symbol id="icon-intro02" viewBox="0 0 63 32">
<title>intro02</title>
<path d="M46.44 0h-30.948c-1.112 0-2.022 0.91-2.022 2.022v19.889c0 1.112 0.91 2.022 2.022 2.022h30.948c1.112 0 2.022-0.91 2.022-2.022v-19.889c0-1.113-0.909-2.022-2.022-2.022zM46.596 20.634c0 1.112-0.91 2.022-2.022 2.022h-27.216c-1.112 0-2.022-0.91-2.022-2.022v-17.336c0-1.112 0.91-2.022 2.022-2.022h27.216c1.112 0 2.022 0.91 2.022 2.022v17.336z"></path>
<path d="M36.154 31.32h-10.375c-0.483 0-0.878-0.395-0.878-0.878v-0.577c0-0.483 0.395-0.878 0.878-0.878h10.375c0.483 0 0.878 0.395 0.878 0.878v0.577c0 0.483-0.395 0.878-0.878 0.878z"></path>
<path d="M27.584 24.749h6.765v3.499h-6.765v-3.499z"></path>
<path d="M54.065 32h-7.239c-0.336 0-0.612-0.276-0.612-0.612v-0.403c0-0.337 0.276-0.613 0.612-0.613h7.239c0.337 0 0.613 0.275 0.613 0.613v0.403c0 0.336-0.275 0.612-0.613 0.612z"></path>
<path d="M48.085 27.415h4.721v2.442h-4.721v-2.442z"></path>
<path d="M61.243 10.146h-10.797v0.89h9.495c0.776 0 1.411 0.635 1.411 1.411v12.097c0 0.775-0.635 1.411-1.411 1.411h-18.991c-0.362 0-0.692-0.14-0.943-0.366h-1.761c0.078 0.704 0.678 1.256 1.402 1.256h21.595c0.775 0 1.411-0.635 1.411-1.411v-13.878c0-0.776-0.635-1.41-1.411-1.41z"></path>
<path d="M8.22 32h6.845c0.337 0 0.613-0.276 0.613-0.612v-0.403c0-0.337-0.276-0.613-0.613-0.613h-6.845c-0.337 0-0.612 0.275-0.612 0.613v0.403c0 0.336 0.275 0.612 0.612 0.612z"></path>
<path d="M9.392 27.415h4.5v2.442h-4.5v-2.442z"></path>
<path d="M1.348 10.146h10.294v0.89h-9.052c-0.74 0-1.345 0.635-1.345 1.411v12.097c0 0.775 0.605 1.411 1.345 1.411h18.105c0.345 0 0.661-0.14 0.899-0.366h1.679c-0.074 0.704-0.647 1.256-1.337 1.256h-20.588c-0.74 0-1.345-0.635-1.345-1.411v-13.878c0-0.776 0.605-1.41 1.345-1.41z"></path>
</symbol>
</defs>
</svg>
