<svg style="position: absolute; width: 0; height: 0; overflow: hidden;" version="1.1" xmlns="http://www.w3.org/2000/svg" xmlns:xlink="http://www.w3.org/1999/xlink">
<defs>
<symbol id="icon-logo" viewBox="0 0 157 32">
<title>logo</title>
<path fill="#6faa27" style="fill: var(--color1, #6faa27)" d="M51.036 0.64c-0.041-0.001-0.088-0.002-0.136-0.002-1.635 0-3.117 0.656-4.197 1.72l0.001-0.001-0.028 0.023c-0.002-0.001-0.004-0.001-0.006-0.001s-0.004 0-0.006 0.001l0-0c-1.122-1.149-2.579-1.728-4.342-1.728-0.027-0-0.060-0.001-0.092-0.001-1.578 0-3.016 0.598-4.1 1.58l0.005-0.005c-1.197 1.069-1.806 2.567-1.806 4.453v13.105c-0 0.008-0 0.017-0 0.027 0 0.437 0.21 0.825 0.535 1.068l0.003 0.003c0.306 0.229 0.692 0.366 1.109 0.366s0.804-0.137 1.114-0.37l-0.005 0.003c0.33-0.243 0.541-0.63 0.541-1.067 0-0.010-0-0.019-0-0.029l0 0.001v-13.107c0-0.947 0.25-1.638 0.766-2.109 0.515-0.447 1.192-0.719 1.932-0.719s1.417 0.272 1.936 0.722l-0.004-0.003c0.516 0.471 0.766 1.162 0.766 2.109v13.105c-0 0.009-0 0.019-0 0.030 0 0.435 0.209 0.822 0.533 1.065l0.003 0.002c0.306 0.229 0.692 0.367 1.111 0.367s0.804-0.138 1.116-0.37l-0.005 0.003c0.328-0.245 0.539-0.633 0.539-1.070 0-0.009-0-0.017-0-0.026l0 0.001v-13.107c0-0.959 0.25-1.65 0.771-2.116 0.496-0.442 1.153-0.712 1.873-0.712 0.027 0 0.054 0 0.081 0.001l-0.004-0c0.022-0.001 0.048-0.001 0.074-0.001 0.718 0 1.371 0.274 1.861 0.724l-0.002-0.002c0.501 0.471 0.764 1.162 0.764 2.109v13.102c-0 0.007-0 0.016-0 0.024 0 0.438 0.21 0.826 0.535 1.070l0.003 0.003c0.306 0.228 0.693 0.365 1.111 0.365s0.804-0.137 1.116-0.369l-0.005 0.004c0.327-0.245 0.536-0.632 0.536-1.067 0-0.010-0-0.019-0-0.029l0 0.001v-13.107c0-1.886-0.606-3.378-1.803-4.453-1.082-0.985-2.527-1.588-4.112-1.588-0.029 0-0.058 0-0.087 0.001l0.004-0z"></path>
<path fill="#6faa27" style="fill: var(--color1, #6faa27)" d="M65.681 5.125c0.751-0.794 1.753-1.175 3.040-1.175 0.462 0.012 0.903 0.082 1.322 0.202l-0.037-0.009c0.368 0.121 0.795 0.205 1.236 0.235l0.016 0.001h0.055c0.368-0.030 1.029-0.223 1.36-1.162 0.072-0.161 0.113-0.349 0.113-0.546 0-0.537-0.308-1.002-0.756-1.228l-0.008-0.004c-0.831-0.466-1.938-0.709-3.293-0.709-2.204 0-4.019 0.726-5.402 2.151s-2.079 3.223-2.079 5.379v5.725c0 2.151 0.694 3.962 2.066 5.377s3.2 2.146 5.402 2.146c1.352 0 2.459-0.233 3.283-0.701 0.462-0.228 0.773-0.696 0.773-1.236 0-0.197-0.041-0.384-0.116-0.553l0.003 0.009c-0.331-0.939-1.002-1.129-1.36-1.16h-0.055c-0.46 0.036-0.885 0.125-1.29 0.261l0.037-0.011c-0.382 0.112-0.822 0.182-1.277 0.195l-0.007 0c-1.3 0-2.294-0.388-3.040-1.177s-1.129-1.831-1.129-3.133v-0.904c-0.002-0.013-0.003-0.027-0.003-0.042 0-0.085 0.030-0.163 0.081-0.224l-0 0.001c0.037-0.043 0.092-0.070 0.154-0.070 0.004 0 0.008 0 0.012 0l-0.001-0h1.62c0.010 0 0.023 0 0.035 0 0.441 0 0.835-0.203 1.092-0.521l0.002-0.003c0.234-0.295 0.375-0.673 0.375-1.083s-0.141-0.788-0.377-1.087l0.003 0.004c-0.26-0.321-0.654-0.524-1.095-0.524-0.012 0-0.024 0-0.036 0l0.002-0h-1.62c-0.003 0-0.008 0-0.012 0-0.064 0-0.123-0.027-0.164-0.070l-0-0c-0.043-0.037-0.070-0.092-0.070-0.154 0-0.004 0-0.008 0-0.012l-0 0.001v-1.054c0.008-1.302 0.376-2.329 1.144-3.135z"></path>
<path fill="#6faa27" style="fill: var(--color1, #6faa27)" d="M87.426 2.729c-1.368-1.136-3.142-1.826-5.078-1.826-0.010 0-0.020 0-0.030 0h-3.975c-0.007-0-0.016-0-0.025-0-0.411 0-0.789 0.138-1.091 0.371l0.004-0.003c-0.324 0.25-0.531 0.639-0.531 1.076 0 0.008 0 0.017 0 0.025l-0-0.001v17.317c-0 0.007-0 0.015-0 0.023 0 0.439 0.21 0.828 0.535 1.074l0.003 0.002c0.295 0.227 0.67 0.363 1.077 0.363 0.012 0 0.024-0 0.037-0l-0.002 0h3.977c0.003 0 0.006 0 0.010 0 0.974 0 1.909-0.172 2.774-0.486l-0.056 0.018c0.913-0.334 1.702-0.794 2.392-1.368l-0.013 0.011c0.748-0.644 1.338-1.449 1.72-2.362l0.015-0.042c0.396-0.937 0.627-2.026 0.627-3.169 0-0.037-0-0.073-0.001-0.11l0 0.006v-5.244c0-0.028 0.001-0.061 0.001-0.094 0-1.14-0.23-2.227-0.647-3.216l0.020 0.054c-0.396-0.962-0.99-1.773-1.735-2.412l-0.008-0.007zM86.492 8.403v5.244c0 1.427-0.391 2.474-1.192 3.195-0.751 0.679-1.752 1.094-2.849 1.094-0.045 0-0.090-0.001-0.135-0.002l0.007 0h-2.332v-13.816h2.332c0.039-0.001 0.085-0.002 0.131-0.002 1.096 0 2.096 0.414 2.85 1.095l-0.004-0.003c0.799 0.724 1.19 1.768 1.19 3.195z"></path>
<path fill="#6faa27" style="fill: var(--color1, #6faa27)" d="M97.082 1.271c-0.307-0.225-0.693-0.361-1.111-0.361s-0.803 0.135-1.116 0.364l0.005-0.004c-0.327 0.249-0.536 0.639-0.536 1.078 0 0.010 0 0.020 0 0.030l-0-0.002v17.407c-0 0.009-0 0.019-0 0.030 0 0.435 0.209 0.822 0.533 1.065l0.003 0.002c0.306 0.229 0.692 0.367 1.111 0.367s0.804-0.138 1.116-0.37l-0.005 0.003c0.328-0.245 0.539-0.633 0.539-1.070 0-0.009-0-0.017-0-0.026l0 0.001v-17.417c0-0.005 0-0.012 0-0.018 0-0.44-0.21-0.831-0.535-1.079l-0.003-0.002z"></path>
<path fill="#6faa27" style="fill: var(--color1, #6faa27)" d="M116.996 1.271c-0.296-0.225-0.671-0.361-1.078-0.361-0.012 0-0.024 0-0.036 0l0.002-0c-0.014-0-0.031-0.001-0.048-0.001-0.405 0-0.778 0.136-1.076 0.364l0.004-0.003c-0.327 0.249-0.536 0.639-0.536 1.077 0 0.010 0 0.019 0 0.029l-0-0.001v7.127h-8.334v-7.132c0-0.005 0-0.012 0-0.018 0-0.44-0.21-0.831-0.535-1.079l-0.003-0.002c-0.307-0.225-0.693-0.361-1.111-0.361s-0.803 0.135-1.116 0.364l0.005-0.004c-0.329 0.249-0.539 0.64-0.539 1.080 0 0.009 0 0.019 0 0.028l-0-0.001v17.407c-0 0.008-0 0.017-0 0.027 0 0.437 0.21 0.825 0.535 1.068l0.003 0.003c0.306 0.229 0.692 0.367 1.111 0.367s0.804-0.138 1.116-0.37l-0.005 0.003c0.328-0.245 0.539-0.633 0.539-1.070 0-0.009-0-0.017-0-0.026l0 0.001v-7.070h8.344v7.067c-0 0.010-0 0.022-0 0.034 0 0.431 0.205 0.815 0.523 1.058l0.003 0.002c0.306 0.229 0.692 0.366 1.109 0.366s0.804-0.137 1.114-0.37l-0.005 0.003c0.327-0.246 0.536-0.632 0.536-1.068 0-0.009-0-0.018-0-0.027l0 0.001v-17.415c0-0.008 0-0.018 0-0.028 0-0.434-0.204-0.82-0.521-1.069l-0.003-0.002z"></path>
<path fill="#6faa27" style="fill: var(--color1, #6faa27)" d="M136.612 1.271c-0.307-0.225-0.692-0.36-1.109-0.36s-0.802 0.135-1.115 0.364l0.005-0.004c-0.329 0.25-0.539 0.641-0.539 1.081 0 0.009 0 0.018 0 0.027l-0-0.001v11.582c0 1.427-0.391 2.474-1.192 3.195-0.8 0.675-1.842 1.086-2.98 1.086s-2.18-0.41-2.987-1.091l0.007 0.006c-0.801-0.711-1.19-1.776-1.19-3.256v-11.53c0-0.006 0-0.013 0-0.021 0-0.439-0.21-0.83-0.535-1.076l-0.003-0.002c-0.307-0.225-0.693-0.361-1.111-0.361s-0.803 0.135-1.116 0.364l0.005-0.004c-0.329 0.249-0.539 0.64-0.539 1.080 0 0.009 0 0.019 0 0.028l-0-0.001v11.582c0 2.362 0.751 4.225 2.236 5.539 1.388 1.219 3.22 1.962 5.225 1.962s3.837-0.743 5.234-1.97l-0.009 0.008c1.503-1.315 2.254-3.178 2.254-5.542v-11.587c0-0.004 0-0.009 0-0.014 0-0.442-0.212-0.835-0.54-1.083l-0.003-0.002z"></path>
<path fill="#6faa27" style="fill: var(--color1, #6faa27)" d="M153.654 10.8c0.539-0.946 0.857-2.079 0.857-3.285 0-0.016-0-0.032-0-0.048v0.002c0-0.020 0-0.044 0-0.068 0-1.754-0.69-3.347-1.813-4.522l0.002 0.002c-1.217-1.312-2.94-1.978-5.129-1.978h-4.087c-0.007-0-0.016-0-0.025-0-0.447 0-0.853 0.18-1.147 0.471l0-0c-0.297 0.284-0.481 0.684-0.481 1.127 0 0.004 0 0.007 0 0.011v-0.001 16.936c-0 0.003-0 0.006-0 0.009 0 0.443 0.184 0.843 0.48 1.127l0.001 0c0.295 0.291 0.701 0.471 1.149 0.471 0.008 0 0.016-0 0.024-0h5.941c1.931 0 3.466-0.591 4.563-1.776 1.007-1.047 1.628-2.473 1.628-4.044 0-0.018-0-0.035-0-0.053l0 0.003c0-1.643-0.664-3.108-1.963-4.385zM149.427 17.837h-4.295v-5.297h4.047c2.059 0 3.025 0.819 3.14 2.652 0.001 0.021 0.001 0.047 0.001 0.072 0 0.706-0.277 1.348-0.728 1.822l0.001-0.001c-0.471 0.511-1.18 0.754-2.166 0.754zM150.641 9.43c-0.364-0.062-0.783-0.098-1.21-0.098-0.002 0-0.003 0-0.005 0h-4.295v-5.214h2.439c1.215 0 2.101 0.311 2.71 0.959 0.573 0.599 0.925 1.412 0.925 2.308 0 0.029-0 0.059-0.001 0.088l0-0.004c0.001 0.023 0.001 0.050 0.001 0.076 0 0.701-0.211 1.354-0.572 1.897l0.008-0.013z"></path>
<path fill="#000" style="fill: var(--color2, #000)" d="M17.151 1.051h0.371v29.713h-0.371v-29.713z"></path>
<path fill="#000" style="fill: var(--color2, #000)" d="M2.105 15.731h30.455v0.358h-30.455v-0.358z"></path>
<path fill="#000" style="fill: var(--color2, #000)" d="M21.871 30.426l-9.479-28.922 0.351-0.105 9.479 28.919-0.351 0.108z"></path>
<path fill="#000" style="fill: var(--color2, #000)" d="M21.859 25.633l-9.434-19.283 0.328-0.153 9.436 19.278-0.331 0.158z"></path>
<path fill="#000" style="fill: var(--color2, #000)" d="M21.931 20.714l-9.509-9.346 0.258-0.253 9.514 9.346-0.263 0.253z"></path>
<path fill="#000" style="fill: var(--color2, #000)" d="M27.090 20.709l-19.729-9.271 0.163-0.323 19.726 9.271-0.16 0.323z"></path>
<path fill="#000" style="fill: var(--color2, #000)" d="M31.846 20.682l-29.19-9.193 0.11-0.341 29.192 9.193-0.113 0.341z"></path>
<path fill="#000" style="fill: var(--color2, #000)" d="M12.743 30.401l-0.351-0.11 9.479-28.924 0.351 0.11-9.479 28.924z"></path>
<path fill="#000" style="fill: var(--color2, #000)" d="M12.753 25.603l-0.328-0.153 9.434-19.285 0.331 0.155-9.436 19.283z"></path>
<path fill="#000" style="fill: var(--color2, #000)" d="M12.68 20.682l-0.258-0.253 9.509-9.341 0.263 0.253-9.514 9.341z"></path>
<path fill="#000" style="fill: var(--color2, #000)" d="M7.524 20.682l-0.163-0.323 19.729-9.271 0.16 0.323-19.726 9.271z"></path>
<path fill="#000" style="fill: var(--color2, #000)" d="M2.766 20.652l-0.11-0.341 29.19-9.196 0.113 0.343-29.192 9.193z"></path>
<path fill="#6faa27" style="fill: var(--color1, #6faa27)" d="M27.155 9.841c-0.782 0.021-1.407 0.66-1.407 1.444 0 0.798 0.647 1.445 1.445 1.445 0.797 0 1.443-0.645 1.445-1.442v-0c-0.010-0.802-0.662-1.448-1.465-1.448-0.006 0-0.012 0-0.019 0h0.001z"></path>
<path fill="#6faa27" style="fill: var(--color1, #6faa27)" d="M27.155 14.401c-0.784 0.020-1.412 0.66-1.412 1.447 0 0.799 0.648 1.447 1.447 1.447s1.447-0.648 1.447-1.447c0-0.001 0-0.001 0-0.002v0c-0.011-0.8-0.663-1.445-1.465-1.445-0.006 0-0.012 0-0.019 0h0.001z"></path>
<path fill="#6faa27" style="fill: var(--color1, #6faa27)" d="M27.155 19.006c-0.782 0.021-1.407 0.66-1.407 1.444 0 0.798 0.647 1.445 1.445 1.445 0.797 0 1.443-0.645 1.445-1.442v-0c-0.010-0.802-0.662-1.448-1.465-1.448-0.006 0-0.012 0-0.019 0h0.001z"></path>
<path fill="#6faa27" style="fill: var(--color1, #6faa27)" d="M7.509 19.006c-0.782 0.021-1.407 0.66-1.407 1.444 0 0.798 0.647 1.445 1.445 1.445 0.797 0 1.443-0.645 1.445-1.442v-0c-0.008-0.801-0.66-1.448-1.462-1.448-0.007 0-0.014 0-0.021 0h0.001z"></path>
<path fill="#6faa27" style="fill: var(--color1, #6faa27)" d="M7.509 9.841c-0.782 0.021-1.407 0.66-1.407 1.444 0 0.798 0.647 1.445 1.445 1.445 0.797 0 1.443-0.645 1.445-1.442v-0c-0.008-0.801-0.66-1.448-1.462-1.448-0.007 0-0.014 0-0.021 0h0.001z"></path>
<path fill="#6faa27" style="fill: var(--color1, #6faa27)" d="M7.509 14.401c-0.784 0.020-1.412 0.66-1.412 1.447 0 0.799 0.648 1.447 1.447 1.447s1.447-0.648 1.447-1.447c0-0.001 0-0.001 0-0.002v0c-0.008-0.8-0.659-1.445-1.46-1.445-0.008 0-0.016 0-0.024 0h0.001z"></path>
<path fill="#6faa27" style="fill: var(--color1, #6faa27)" d="M2.646 19.159c-0.714 0-1.293 0.579-1.293 1.293s0.579 1.293 1.293 1.293v0c0.714 0 1.293-0.579 1.293-1.293s-0.579-1.293-1.293-1.293v0z"></path>
<path fill="#6faa27" style="fill: var(--color1, #6faa27)" d="M2.646 9.993c-0.017-0.001-0.037-0.001-0.057-0.001-0.715 0-1.295 0.58-1.295 1.295s0.58 1.295 1.295 1.295c0.020 0 0.040-0 0.060-0.001l-0.003 0c0.017 0.001 0.037 0.001 0.057 0.001 0.715 0 1.295-0.58 1.295-1.295s-0.58-1.295-1.295-1.295c-0.020 0-0.040 0-0.060 0.001l0.003-0z"></path>
<path fill="#6faa27" style="fill: var(--color1, #6faa27)" d="M2.646 14.544c-0.715 0-1.295 0.58-1.295 1.295s0.58 1.295 1.295 1.295v0c0.715 0 1.295-0.58 1.295-1.295s-0.58-1.295-1.295-1.295v0z"></path>
<path fill="#6faa27" style="fill: var(--color1, #6faa27)" d="M32.021 12.58c0.701-0.018 1.262-0.591 1.262-1.294 0-0.715-0.58-1.295-1.295-1.295-0.713 0-1.292 0.577-1.295 1.289v0c0.006 0.719 0.59 1.3 1.31 1.3 0.006 0 0.012-0 0.019-0h-0.001z"></path>
<path fill="#6faa27" style="fill: var(--color1, #6faa27)" d="M32.021 19.159c-0.7 0.018-1.26 0.59-1.26 1.292 0 0.714 0.579 1.292 1.292 1.292 0.713 0 1.291-0.577 1.292-1.289v-0c-0.010-0.717-0.594-1.295-1.312-1.295-0.004 0-0.009 0-0.013 0h0.001z"></path>
<path fill="#6faa27" style="fill: var(--color1, #6faa27)" d="M32.021 14.544c-0.702 0.017-1.265 0.59-1.265 1.294 0 0.715 0.58 1.295 1.295 1.295s1.293-0.578 1.295-1.292v-0c-0.010-0.719-0.595-1.297-1.315-1.297-0.004 0-0.007 0-0.011 0h0.001z"></path>
<path fill="#e20613" style="fill: var(--color3, #e20613)" d="M17.333 13.765c-1.127 0.029-2.028 0.95-2.028 2.080 0 1.149 0.932 2.081 2.081 2.081s2.081-0.931 2.081-2.080v-0c-0.015-1.153-0.954-2.081-2.108-2.081-0.009 0-0.018 0-0.027 0h0.001z"></path>
<path fill="#6faa27" style="fill: var(--color1, #6faa27)" d="M17.333 2.856c0.005 0 0.010 0 0.015 0 0.719 0 1.302-0.578 1.312-1.294v-0.001c0-0.733-0.594-1.327-1.327-1.327s-1.327 0.594-1.327 1.327v0c0.010 0.717 0.594 1.295 1.312 1.295 0.005 0 0.011-0 0.016-0h-0.001z"></path>
<path fill="#e20613" style="fill: var(--color3, #e20613)" d="M17.333 12.946c0.898-0.024 1.618-0.758 1.618-1.66 0-0.917-0.743-1.66-1.66-1.66s-1.66 0.743-1.66 1.66c0 0.001 0 0.001 0 0.002v-0c0.014 0.919 0.762 1.658 1.683 1.658 0.007 0 0.014-0 0.021-0h-0.001z"></path>
<path fill="#e20613" style="fill: var(--color3, #e20613)" d="M17.333 18.801c-0.9 0.022-1.62 0.757-1.62 1.66 0 0.917 0.743 1.66 1.66 1.66 0.916 0 1.659-0.742 1.66-1.657v-0c-0.013-0.921-0.762-1.663-1.685-1.663-0.005 0-0.011 0-0.016 0h0.001z"></path>
<path fill="#6faa27" style="fill: var(--color1, #6faa27)" d="M17.333 7.755c0.782-0.022 1.407-0.662 1.407-1.447 0-0.799-0.648-1.447-1.447-1.447s-1.447 0.648-1.447 1.447v0c0.011 0.802 0.664 1.448 1.467 1.448 0.007 0 0.014-0 0.021-0h-0.001z"></path>
<path fill="#6faa27" style="fill: var(--color1, #6faa27)" d="M17.333 24.060c-0.784 0.020-1.412 0.66-1.412 1.447 0 0.799 0.648 1.447 1.447 1.447s1.447-0.648 1.447-1.447c0-0.001 0-0.001 0-0.002v0c-0.013-0.801-0.665-1.445-1.467-1.445-0.005 0-0.011 0-0.016 0h0.001z"></path>
<path fill="#6faa27" style="fill: var(--color1, #6faa27)" d="M18.661 30.253c0 0.714-0.594 1.292-1.327 1.292s-1.327-0.579-1.327-1.292c0-0.714 0.594-1.292 1.327-1.292s1.327 0.579 1.327 1.292z"></path>
<path fill="#6faa27" style="fill: var(--color1, #6faa27)" d="M22.034 2.856c0.004 0 0.008 0 0.013 0 0.719 0 1.302-0.578 1.312-1.294v-0.001c0-0.733-0.594-1.327-1.327-1.327s-1.327 0.594-1.327 1.327v0c0.010 0.717 0.594 1.295 1.312 1.295 0.006 0 0.012-0 0.019-0h-0.001z"></path>
<path fill="#e20613" style="fill: var(--color3, #e20613)" d="M22.034 17.504c0.901-0.022 1.623-0.758 1.623-1.662 0-0.918-0.744-1.663-1.663-1.663s-1.663 0.744-1.663 1.663c0 0.002 0 0.003 0 0.005v-0c0.014 0.919 0.762 1.658 1.683 1.658 0.007 0 0.014-0 0.021-0h-0.001z"></path>
<path fill="#6faa27" style="fill: var(--color1, #6faa27)" d="M22.034 9.625c-0.9 0.022-1.62 0.757-1.62 1.66 0 0.917 0.743 1.66 1.66 1.66 0.916 0 1.659-0.742 1.66-1.657v-0c-0.011-0.921-0.76-1.663-1.683-1.663-0.006 0-0.012 0-0.019 0h0.001z"></path>
<path fill="#6faa27" style="fill: var(--color1, #6faa27)" d="M22.034 18.801c-0.9 0.022-1.62 0.757-1.62 1.66 0 0.917 0.743 1.66 1.66 1.66s1.66-0.743 1.66-1.66c0-0.002 0-0.005-0-0.007v0c-0.017-0.916-0.764-1.653-1.683-1.653-0.006 0-0.012 0-0.019 0h0.001z"></path>
<path fill="#6faa27" style="fill: var(--color1, #6faa27)" d="M22.034 7.755c0.784-0.020 1.412-0.66 1.412-1.447 0-0.799-0.648-1.447-1.447-1.447s-1.447 0.648-1.447 1.447c0 0.001 0 0.001 0 0.002v-0c0.011 0.8 0.663 1.445 1.465 1.445 0.006 0 0.012-0 0.019-0h-0.001z"></path>
<path fill="#6faa27" style="fill: var(--color1, #6faa27)" d="M23.359 30.253c0 0.714-0.594 1.292-1.327 1.292s-1.327-0.579-1.327-1.292c0-0.714 0.594-1.292 1.327-1.292s1.327 0.579 1.327 1.292z"></path>
<path fill="#6faa27" style="fill: var(--color1, #6faa27)" d="M22.034 24.060c-0.785 0.018-1.415 0.659-1.415 1.447 0 0.799 0.648 1.447 1.447 1.447s1.447-0.648 1.447-1.447c0-0.001 0-0.002 0-0.002v0c-0.013-0.801-0.665-1.445-1.467-1.445-0.004 0-0.009 0-0.013 0h0.001z"></path>
<path fill="#6faa27" style="fill: var(--color1, #6faa27)" d="M12.635 2.856c0.005 0 0.010 0 0.015 0 0.719 0 1.302-0.578 1.312-1.294v-0.001c0-0.733-0.594-1.327-1.327-1.327s-1.327 0.594-1.327 1.327v0c0.010 0.717 0.594 1.295 1.312 1.295 0.005 0 0.011-0 0.016-0h-0.001z"></path>
<path fill="#6faa27" style="fill: var(--color1, #6faa27)" d="M12.635 9.625c-0.896 0.027-1.613 0.759-1.613 1.66 0 0.917 0.743 1.66 1.66 1.66 0.916 0 1.659-0.742 1.66-1.657v-0c-0.011-0.921-0.76-1.663-1.683-1.663-0.009 0-0.018 0-0.027 0l0.001-0z"></path>
<path fill="#6faa27" style="fill: var(--color1, #6faa27)" d="M12.635 18.801c-0.896 0.027-1.613 0.759-1.613 1.66 0 0.917 0.743 1.66 1.66 1.66s1.66-0.743 1.66-1.66c0-0.002 0-0.005 0-0.007v0c-0.017-0.916-0.764-1.653-1.683-1.653-0.009 0-0.018 0-0.027 0l0.001-0z"></path>
<path fill="#e20613" style="fill: var(--color3, #e20613)" d="M12.635 14.181c-0.899 0.025-1.618 0.76-1.618 1.662 0 0.918 0.744 1.663 1.663 1.663s1.662-0.744 1.663-1.662v-0c-0.013-0.921-0.762-1.663-1.685-1.663-0.008 0-0.016 0-0.024 0h0.001z"></path>
<path fill="#6faa27" style="fill: var(--color1, #6faa27)" d="M12.635 7.755c0.785-0.018 1.415-0.659 1.415-1.447 0-0.799-0.648-1.447-1.447-1.447s-1.447 0.648-1.447 1.447c0 0.001 0 0.002 0 0.002v-0c0.013 0.801 0.665 1.445 1.467 1.445 0.004 0 0.009-0 0.013-0h-0.001z"></path>
<path fill="#6faa27" style="fill: var(--color1, #6faa27)" d="M13.963 30.253c0 0.714-0.594 1.292-1.327 1.292s-1.327-0.579-1.327-1.292c0-0.714 0.594-1.292 1.327-1.292s1.327 0.579 1.327 1.292z"></path>
<path fill="#6faa27" style="fill: var(--color1, #6faa27)" d="M12.635 24.060c-0.784 0.020-1.412 0.66-1.412 1.447 0 0.799 0.648 1.447 1.447 1.447s1.447-0.648 1.447-1.447c0-0.001 0-0.001 0-0.002v0c-0.011-0.8-0.663-1.445-1.465-1.445-0.006 0-0.012 0-0.019 0h0.001z"></path>
<path fill="#e20613" style="fill: var(--color3, #e20613)" d="M38.179 26.674h-0.416c-0.736 0-1.104-0.22-1.104-0.659s0.333-0.661 1.002-0.661h2.454q1.002 0 1.002 0.661c0 0.438-0.371 0.659-1.109 0.659h-0.421v3.949c0 0.669-0.233 1.002-0.704 1.002s-0.706-0.333-0.706-1.002z"></path>
<path fill="#e20613" style="fill: var(--color3, #e20613)" d="M42.892 29.044v1.578c0 0.674-0.235 1.002-0.706 1.002s-0.704-0.333-0.704-1.002v-4.337c0-0.671 0.233-1.002 0.704-1.002s0.706 0.336 0.706 1.002v1.46h2.592v-1.46c0-0.671 0.25-1.002 0.706-1.002s0.709 0.336 0.709 1.002v4.342c0 0.669-0.235 1.002-0.709 1.002s-0.706-0.333-0.706-1.002v-1.578z"></path>
<path fill="#e20613" style="fill: var(--color3, #e20613)" d="M47.7 28.458c-0.002-0.044-0.003-0.095-0.003-0.147 0-0.833 0.3-1.596 0.799-2.187l-0.004 0.005c0.571-0.583 1.367-0.945 2.248-0.945s1.676 0.362 2.247 0.944l0.001 0.001c0.5 0.584 0.804 1.349 0.804 2.185 0 0.050-0.001 0.101-0.003 0.151l0-0.007c0.002 0.043 0.003 0.093 0.003 0.144 0 0.838-0.304 1.606-0.808 2.198l0.004-0.005c-0.573 0.579-1.369 0.938-2.248 0.938s-1.674-0.359-2.247-0.937l-0-0c-0.494-0.588-0.794-1.354-0.794-2.189 0-0.052 0.001-0.103 0.003-0.155l-0 0.007zM50.733 24.501l-0.751 0.456c-0.112 0.078-0.249 0.127-0.397 0.133l-0.001 0c-0.275 0-0.413-0.148-0.413-0.446 0.007-0.195 0.109-0.366 0.261-0.467l0.002-0.001 0.949-0.751c0.095-0.083 0.219-0.135 0.355-0.14l0.001-0c0.138 0.006 0.262 0.058 0.359 0.141l-0.001-0.001 0.949 0.751c0.154 0.103 0.256 0.273 0.265 0.467l0 0.001c0 0.298-0.14 0.446-0.413 0.446-0.15-0.006-0.287-0.055-0.401-0.134l0.002 0.002zM49.23 28.475c-0.001 0.028-0.002 0.060-0.002 0.092 0 0.449 0.129 0.868 0.353 1.222l-0.006-0.009c0.258 0.367 0.679 0.604 1.156 0.604s0.898-0.237 1.153-0.6l0.003-0.005c0.219-0.345 0.35-0.765 0.35-1.216 0-0.031-0.001-0.062-0.002-0.093l0 0.004c0.001-0.026 0.002-0.057 0.002-0.088 0-0.459-0.127-0.888-0.348-1.255l0.006 0.011c-0.255-0.377-0.68-0.621-1.163-0.621s-0.908 0.244-1.16 0.616l-0.003 0.005c-0.212 0.354-0.337 0.78-0.337 1.236 0 0.034 0.001 0.068 0.002 0.101l-0-0.005z"></path>
<path fill="#e20613" style="fill: var(--color3, #e20613)" d="M55.281 31.628c-0.468 0-0.704-0.333-0.704-1.002v-4.395c0-0.631 0.218-0.949 0.654-0.949 0.319 0.023 0.592 0.199 0.749 0.454l0.002 0.004 2.604 3.438v-2.892q0-1.002 0.706-1.002c0.468 0 0.704 0.336 0.704 1.002v4.508c0 0.586-0.218 0.879-0.646 0.879-0.278 0-0.546-0.17-0.806-0.501l-2.554-3.396v2.85c0 0.669-0.235 1.002-0.709 1.002z"></path>
<path fill="#e20613" style="fill: var(--color3, #e20613)" d="M65.11 29.139h-0.413c-0.714 0-1.074-0.22-1.074-0.661s0.331-0.661 1.002-0.661h1.037c0.028-0.003 0.060-0.004 0.093-0.004 0.249 0 0.478 0.083 0.661 0.224l-0.003-0.002c0.157 0.169 0.254 0.397 0.254 0.647 0 0.029-0.001 0.057-0.004 0.085l0-0.004c0.002 0.037 0.003 0.080 0.003 0.123 0 0.776-0.298 1.483-0.786 2.012l0.002-0.002c-0.507 0.515-1.211 0.834-1.989 0.834-0.043 0-0.085-0.001-0.128-0.003l0.006 0c-0.031 0.001-0.068 0.002-0.105 0.002-0.835 0-1.582-0.377-2.081-0.97l-0.003-0.004c-0.483-0.589-0.776-1.35-0.776-2.18 0-0.045 0.001-0.091 0.003-0.136l-0 0.006c-0.003-0.049-0.004-0.105-0.004-0.163 0-0.845 0.313-1.616 0.829-2.205l-0.003 0.004c0.547-0.565 1.312-0.915 2.159-0.915 0.052 0 0.103 0.001 0.154 0.004l-0.007-0c0.026-0.001 0.056-0.001 0.086-0.001 0.554 0 1.074 0.145 1.524 0.4l-0.015-0.008c0.443 0.25 0.661 0.558 0.661 0.894 0 0.001 0 0.001 0 0.002 0 0.176-0.067 0.336-0.176 0.457l0.001-0.001c-0.1 0.126-0.254 0.205-0.425 0.205-0 0-0 0-0 0v0c-0.268-0.076-0.501-0.18-0.716-0.31l0.013 0.007c-0.293-0.17-0.641-0.279-1.012-0.303l-0.007-0c-0.021-0.001-0.045-0.002-0.069-0.002-0.463 0-0.872 0.228-1.122 0.579l-0.003 0.004c-0.227 0.344-0.363 0.766-0.363 1.22 0 0.035 0.001 0.070 0.002 0.105l-0-0.005c-0.001 0.028-0.002 0.061-0.002 0.094 0 0.468 0.136 0.903 0.371 1.27l-0.006-0.009c0.243 0.372 0.658 0.615 1.129 0.615 0.021 0 0.042-0 0.063-0.001l-0.003 0c0.019 0.001 0.042 0.002 0.065 0.002 0.325 0 0.62-0.129 0.837-0.338l-0 0c0.213-0.224 0.344-0.528 0.344-0.862 0-0.017-0-0.033-0.001-0.049l0 0.002z"></path>
<path fill="#e20613" style="fill: var(--color3, #e20613)" d="M70.998 26.674h-0.416c-0.736 0-1.104-0.22-1.104-0.659s0.336-0.661 1.002-0.661h2.464c0.669 0 1.002 0.22 1.002 0.661s-0.371 0.659-1.112 0.659h-0.413v3.949c0 0.669-0.235 1.002-0.704 1.002s-0.709-0.333-0.709-1.002z"></path>
<path fill="#e20613" style="fill: var(--color3, #e20613)" d="M75.756 30.624c0 0.669-0.235 1.002-0.704 1.002s-0.706-0.333-0.706-1.002v-4.34q0-1.002 0.706-1.002c0.468 0 0.704 0.336 0.704 1.002z"></path>
<path fill="#e20613" style="fill: var(--color3, #e20613)" d="M77.591 31.628c-0.468 0-0.704-0.333-0.704-1.002v-4.395c0-0.631 0.218-0.949 0.654-0.949 0.319 0.023 0.592 0.199 0.749 0.454l0.002 0.004 2.604 3.438v-2.892c0-0.669 0.235-1.002 0.704-1.002s0.709 0.336 0.709 1.002v4.508q0 0.879-0.651 0.879c-0.275 0-0.541-0.17-0.804-0.501l-2.552-3.373v2.85c-0.003 0.646-0.24 0.979-0.711 0.979z"></path>
<path fill="#e20613" style="fill: var(--color3, #e20613)" d="M89.795 25.267c0 0 0 0 0 0 0.169 0 0.321 0.073 0.425 0.19l0 0.001c0.116 0.105 0.19 0.255 0.193 0.423v0c-0.043 0.275-0.158 0.517-0.325 0.713l0.002-0.002-1.427 2.041v2.003c0 0.669-0.233 1.002-0.704 1.002s-0.704-0.333-0.704-1.002v-2.003l-1.427-2.021c-0.165-0.196-0.279-0.442-0.315-0.712l-0.001-0.007c-0-0.004-0-0.008-0-0.013 0-0.178 0.082-0.337 0.21-0.442l0.001-0.001c0.118-0.106 0.275-0.171 0.447-0.171 0.007 0 0.015 0 0.022 0l-0.001-0c0.233 0 0.471 0.183 0.724 0.551l1.052 1.503 1.072-1.528c0.245-0.353 0.498-0.526 0.756-0.526z"></path>
<path fill="#e20613" style="fill: var(--color3, #e20613)" d="M94.34 26.674h-0.418c-0.736 0-1.104-0.22-1.104-0.659s0.336-0.661 1.002-0.661h2.449c0.669 0 1.002 0.22 1.002 0.661s-0.368 0.659-1.107 0.659h-0.418v3.949c0 0.669-0.235 1.002-0.704 1.002s-0.704-0.333-0.704-1.002z"></path>
<path fill="#e20613" style="fill: var(--color3, #e20613)" d="M100.21 25.355c0.669 0 1.002 0.225 1.002 0.664s-0.336 0.654-1.002 0.654h-1.147v1.102h1.002c0.666 0 1.002 0.218 1.002 0.654s-0.336 0.649-1.002 0.649h-1.002v1.167h1.177c0.669 0 1.002 0.215 1.002 0.651s-0.333 0.651-1.002 0.651h-1.643c-0.035 0.004-0.077 0.006-0.118 0.006-0.229 0-0.442-0.066-0.623-0.179l0.005 0.003c-0.139-0.162-0.224-0.373-0.224-0.605 0-0.038 0.002-0.076 0.007-0.113l-0 0.004v-4.315c-0.004-0.035-0.006-0.075-0.006-0.115 0-0.247 0.081-0.475 0.219-0.659l-0.002 0.003c0.176-0.141 0.402-0.225 0.648-0.225 0.036 0 0.072 0.002 0.108 0.005l-0.004-0zM99.359 24.498l-0.751 0.456c-0.112 0.078-0.249 0.127-0.397 0.133l-0.001 0c-0.275 0-0.413-0.148-0.413-0.446 0.008-0.195 0.109-0.365 0.261-0.467l0.002-0.001 0.949-0.751c0.093-0.088 0.219-0.142 0.358-0.142s0.265 0.054 0.358 0.142l-0-0 0.949 0.751c0.153 0.103 0.255 0.273 0.263 0.467l0 0.001c0 0.298-0.138 0.446-0.413 0.446-0.15-0.006-0.287-0.055-0.401-0.134l0.002 0.002zM98.57 23.246c-0.017 0.003-0.037 0.004-0.057 0.004-0.23 0-0.416-0.186-0.416-0.416 0-0.022 0.002-0.043 0.005-0.064l-0 0.002c0.007-0.147 0.062-0.279 0.149-0.384l-0.001 0.001 0.631-0.874c0.107-0.167 0.291-0.277 0.5-0.28h0.001c0.002-0 0.005-0 0.008-0 0.146 0 0.28 0.055 0.381 0.146l-0.001-0c0.1 0.092 0.163 0.223 0.163 0.37 0 0.004-0 0.008-0 0.012v-0.001c-0.012 0.192-0.096 0.362-0.225 0.486l-0 0-0.664 0.734c-0.113 0.144-0.282 0.24-0.473 0.255l-0.002 0z"></path>
<path fill="#e20613" style="fill: var(--color3, #e20613)" d="M108.524 31.032c-0.487 0.434-1.133 0.699-1.841 0.699-0.041 0-0.082-0.001-0.123-0.003l0.006 0c-0.021 0.001-0.046 0.001-0.071 0.001-0.532 0-1.017-0.196-1.389-0.519l0.003 0.002c-0.376-0.329-0.612-0.81-0.612-1.345 0-0.017 0-0.033 0.001-0.049l-0 0.002c0-0.806 0.481-1.44 1.43-1.906-0.342-0.321-0.563-0.767-0.591-1.265l-0-0.005c-0.001-0.013-0.001-0.029-0.001-0.045 0-0.438 0.224-0.823 0.565-1.047l0.005-0.003c0.324-0.228 0.727-0.364 1.161-0.364 0.021 0 0.041 0 0.062 0.001l-0.003-0c0.018-0.001 0.038-0.001 0.059-0.001 0.443 0 0.853 0.145 1.183 0.39l-0.005-0.004c0.34 0.246 0.559 0.641 0.559 1.088 0 0.015-0 0.029-0.001 0.044l0-0.002c0 0.634-0.351 1.162-1.052 1.585l0.839 1.002c0.22-0.27 0.366-0.443 0.443-0.518 0.141-0.17 0.341-0.287 0.569-0.32l0.005-0.001c0.003-0 0.008-0 0.012-0 0.148 0 0.281 0.068 0.368 0.175l0.001 0.001c0.093 0.105 0.15 0.244 0.15 0.396 0 0.003-0 0.007-0 0.011v-0.001q0 0.406-0.786 1.129c0.361 0.416 0.541 0.726 0.541 0.924 0 0.003 0 0.006 0 0.010 0 0.161-0.063 0.308-0.166 0.416l0-0c-0.107 0.105-0.253 0.17-0.415 0.17-0.004 0-0.007-0-0.011-0h0.001c-0.233 0-0.526-0.215-0.894-0.649zM107.796 30.125l-1.134-1.307c-0.501 0.25-0.751 0.558-0.751 0.967-0.001 0.011-0.001 0.023-0.001 0.036 0 0.216 0.088 0.412 0.231 0.553l0 0c0.147 0.139 0.346 0.224 0.564 0.224 0.012 0 0.024-0 0.036-0.001l-0.002 0c0.414-0.023 0.783-0.198 1.057-0.468l-0 0zM107.107 27.446c0.456-0.19 0.689-0.436 0.689-0.751-0.002-0.157-0.079-0.296-0.197-0.382l-0.001-0.001c-0.111-0.093-0.254-0.149-0.41-0.15h-0c-0.004-0-0.009-0-0.013-0-0.146 0-0.279 0.052-0.383 0.139l0.001-0.001c-0.107 0.086-0.175 0.216-0.175 0.363 0 0.003 0 0.005 0 0.008v-0c0.003 0.223 0.165 0.483 0.491 0.776z"></path>
<path fill="#e20613" style="fill: var(--color3, #e20613)" d="M117.73 29.632c0.001 0.024 0.002 0.053 0.002 0.082 0 0.599-0.281 1.133-0.719 1.475l-0.004 0.003c-0.434 0.328-0.983 0.525-1.578 0.525-0.036 0-0.072-0.001-0.108-0.002l0.005 0c-0.026 0.001-0.058 0.001-0.089 0.001-0.483 0-0.94-0.111-1.347-0.31l0.018 0.008c-0.388-0.198-0.584-0.431-0.584-0.694-0-0.007-0.001-0.015-0.001-0.024 0-0.179 0.079-0.34 0.205-0.449l0.001-0.001c0.127-0.1 0.289-0.161 0.465-0.161 0.013 0 0.025 0 0.038 0.001l-0.002-0c0.247 0.032 0.471 0.087 0.683 0.165l-0.022-0.007c0.25 0.090 0.54 0.148 0.841 0.16l0.006 0c0.006 0 0.014 0 0.022 0 0.184 0 0.351-0.067 0.48-0.179l-0.001 0.001c0.125-0.107 0.203-0.264 0.203-0.44 0-0.006-0-0.013-0-0.019l0 0.001c0-0.005 0-0.010 0-0.015 0-0.181-0.078-0.345-0.203-0.458l-0.001-0c-0.251-0.174-0.545-0.307-0.861-0.382l-0.018-0.004c-0.466-0.12-0.874-0.314-1.233-0.571l0.011 0.008c-0.322-0.269-0.525-0.671-0.525-1.12 0-0.024 0.001-0.049 0.002-0.073l-0 0.003c-0.001-0.019-0.001-0.042-0.001-0.064 0-0.566 0.264-1.070 0.676-1.395l0.004-0.003c0.404-0.313 0.919-0.503 1.478-0.503 0.032 0 0.063 0.001 0.094 0.002l-0.005-0c0.011-0 0.024-0 0.037-0 0.362 0 0.708 0.067 1.027 0.19l-0.020-0.007c0.431 0.165 0.644 0.413 0.644 0.734 0 0.398-0.21 0.596-0.636 0.596-0.2-0.009-0.388-0.047-0.565-0.109l0.014 0.004c-0.163-0.054-0.351-0.092-0.546-0.105l-0.007-0c-0.010-0-0.022-0.001-0.035-0.001-0.161 0-0.311 0.046-0.437 0.125l0.003-0.002c-0.133 0.081-0.221 0.226-0.221 0.391 0 0.007 0 0.014 0.001 0.021l-0-0.001q0 0.371 0.824 0.636c0.525 0.147 0.984 0.365 1.395 0.649l-0.015-0.010c0.37 0.3 0.605 0.754 0.605 1.264 0 0.022-0 0.045-0.001 0.067l0-0.003z"></path>
<path fill="#e20613" style="fill: var(--color3, #e20613)" d="M118.454 28.893v-2.61c0-0.671 0.235-1.002 0.704-1.002s0.704 0.336 0.704 1.002v2.452c0 1.102 0.416 1.648 1.252 1.648s1.252-0.548 1.252-1.648v-2.452c0-0.671 0.233-1.002 0.704-1.002s0.704 0.336 0.704 1.002v2.61q0 1.307-0.661 2.051c-0.463 0.523-1.129 0.784-1.991 0.784s-1.528-0.25-2.003-0.779-0.664-1.185-0.664-2.056zM120.875 24.944c-0.017 0.002-0.037 0.004-0.057 0.004-0.232 0-0.421-0.188-0.421-0.421 0-0.021 0.001-0.041 0.004-0.061l-0 0.002c0.008-0.146 0.062-0.279 0.149-0.384l-0.001 0.001 0.636-0.874c0.107-0.167 0.291-0.276 0.501-0.278h0c0.004-0 0.008-0 0.012-0 0.146 0 0.279 0.056 0.379 0.148l-0-0c0.099 0.092 0.16 0.222 0.16 0.367 0 0.001 0 0.002 0 0.004v-0c-0.010 0.197-0.094 0.373-0.225 0.501l-0 0-0.661 0.731c-0.113 0.146-0.281 0.244-0.473 0.263l-0.003 0zM124.099 25.793h-0.123c-0.007 0-0.016 0-0.025 0-0.16 0-0.308-0.055-0.425-0.147l0.001 0.001c-0.126-0.088-0.208-0.232-0.208-0.396 0-0.006 0-0.012 0-0.018l-0 0.001c-0-0.006-0-0.013-0-0.020 0-0.174 0.073-0.331 0.19-0.441l0-0c0.117-0.112 0.276-0.18 0.451-0.18 0.005 0 0.010 0 0.016 0h-0.001c0.009-0 0.019-0.001 0.030-0.001 0.22 0 0.418 0.097 0.553 0.25l0.001 0.001c0.134 0.154 0.216 0.357 0.216 0.579 0 0.013-0 0.026-0.001 0.039l0-0.002c-0.006 0.366-0.16 0.694-0.405 0.929l-0.001 0c-0.224 0.261-0.551 0.428-0.917 0.438l-0.002 0c-0.25 0-0.386-0.080-0.386-0.25 0-0.095 0.075-0.168 0.233-0.218 0.288-0.088 0.441-0.138 0.463-0.15 0.168-0.081 0.293-0.23 0.337-0.411l0.001-0.004z"></path>
<path fill="#e20613" style="fill: var(--color3, #e20613)" d="M127.87 31.731c-0.043 0.002-0.093 0.004-0.144 0.004-0.836 0-1.588-0.362-2.108-0.938l-0.002-0.003c-0.494-0.588-0.794-1.354-0.794-2.189 0-0.052 0.001-0.103 0.003-0.155l-0 0.007c-0.001-0.033-0.002-0.072-0.002-0.111 0-0.846 0.312-1.62 0.827-2.212l-0.004 0.004c0.524-0.588 1.282-0.956 2.127-0.956 0.036 0 0.071 0.001 0.107 0.002l-0.005-0c0.027-0.001 0.058-0.002 0.089-0.002 0.451 0 0.875 0.112 1.247 0.309l-0.014-0.007c0.356 0.2 0.531 0.431 0.531 0.689 0 0.002 0 0.004 0 0.007 0 0.169-0.067 0.323-0.176 0.437l0-0c-0.099 0.12-0.247 0.195-0.413 0.195-0.004 0-0.007-0-0.011-0h0.001c-0.215-0.021-0.412-0.063-0.6-0.126l0.019 0.005c-0.196-0.065-0.423-0.108-0.659-0.122l-0.007-0c-0.017-0.001-0.038-0.001-0.059-0.001-0.464 0-0.873 0.239-1.11 0.6l-0.003 0.005c-0.223 0.348-0.355 0.773-0.355 1.228 0 0.030 0.001 0.061 0.002 0.091l-0-0.004c-0.001 0.028-0.002 0.061-0.002 0.094 0 0.454 0.142 0.875 0.385 1.22l-0.005-0.007c0.256 0.346 0.662 0.568 1.121 0.568 0.024 0 0.048-0.001 0.072-0.002l-0.003 0c0.273-0.011 0.53-0.068 0.767-0.163l-0.016 0.006c0.162-0.074 0.35-0.131 0.546-0.161l0.012-0.002c0.16 0.001 0.303 0.074 0.397 0.189l0.001 0.001c0.103 0.112 0.167 0.263 0.168 0.428v0c0 0.288-0.188 0.538-0.558 0.751-0.374 0.203-0.819 0.322-1.292 0.322-0.028 0-0.056-0-0.085-0.001l0.004 0z"></path>
<path fill="#e20613" style="fill: var(--color3, #e20613)" d="M137.146 25.312c0.001 0 0.002 0 0.003 0 0.174 0 0.332 0.073 0.443 0.19l0 0c0.114 0.113 0.185 0.271 0.185 0.445 0 0.003-0 0.006-0 0.009v-0c-0.028 0.278-0.16 0.52-0.354 0.693l-0.001 0.001-1.523 1.583 1.886 2.056c0.195 0.175 0.327 0.418 0.358 0.691l0 0.005c-0.009 0.355-0.294 0.641-0.647 0.654l-0.001 0c-0.208 0-0.466-0.168-0.751-0.501l-2.114-2.334v1.828c0 0.669-0.233 1.002-0.704 1.002s-0.706-0.333-0.706-1.002v-4.347q0-1.002 0.706-1.002c0.473 0 0.704 0.336 0.704 1.002v1.533l1.796-2.026c0.278-0.333 0.518-0.478 0.721-0.478z"></path>
<path fill="#e20613" style="fill: var(--color3, #e20613)" d="M139.986 29.044v1.578c0 0.674-0.233 1.002-0.704 1.002s-0.704-0.333-0.704-1.002v-4.337c0-0.671 0.233-1.002 0.704-1.002s0.704 0.336 0.704 1.002v1.46h2.594v-1.46c0-0.671 0.233-1.002 0.706-1.002s0.706 0.336 0.706 1.002v4.342c0 0.669-0.235 1.002-0.706 1.002s-0.706-0.333-0.706-1.002v-1.578z"></path>
<path fill="#e20613" style="fill: var(--color3, #e20613)" d="M144.781 28.458c-0.002-0.044-0.003-0.095-0.003-0.147 0-0.833 0.3-1.596 0.799-2.187l-0.004 0.005c0.571-0.583 1.367-0.945 2.248-0.945s1.676 0.362 2.247 0.944l0.001 0.001c0.5 0.584 0.804 1.349 0.804 2.185 0 0.051-0.001 0.101-0.003 0.152l0-0.007c0.002 0.043 0.003 0.093 0.003 0.144 0 0.838-0.304 1.606-0.808 2.198l0.004-0.005c-0.573 0.579-1.369 0.938-2.248 0.938s-1.674-0.359-2.247-0.937l-0-0c-0.494-0.588-0.794-1.354-0.794-2.189 0-0.052 0.001-0.103 0.003-0.155l-0 0.007zM146.314 28.475c-0.001 0.025-0.002 0.055-0.002 0.085 0 0.452 0.13 0.874 0.355 1.23l-0.006-0.009c0.257 0.367 0.678 0.604 1.155 0.604s0.897-0.237 1.151-0.6l0.003-0.005c0.22-0.345 0.35-0.765 0.35-1.216 0-0.031-0.001-0.062-0.002-0.093l0 0.004c0.001-0.028 0.002-0.060 0.002-0.092 0-0.457-0.126-0.885-0.346-1.251l0.006 0.011c-0.255-0.377-0.681-0.621-1.165-0.621s-0.909 0.244-1.161 0.616l-0.003 0.005c-0.211 0.35-0.336 0.772-0.336 1.224 0 0.038 0.001 0.076 0.003 0.114l-0-0.005zM147.481 24.666v-0.205c-0-0.004-0-0.009-0-0.014 0-0.043 0.010-0.084 0.029-0.121l-0.001 0.002c0.015-0.030 0.108-0.078 0.275-0.13 0.121-0.025 0.211-0.131 0.211-0.258 0-0.004-0-0.007-0-0.011l0 0.001c0-0.143-0.073-0.213-0.225-0.213-0.138 0.015-0.261 0.075-0.353 0.165l0-0c-0.077 0.081-0.177 0.14-0.289 0.165l-0.004 0.001c-0.001 0-0.001 0-0.002 0-0.088 0-0.166-0.045-0.21-0.114l-0.001-0.001c-0.044-0.055-0.071-0.126-0.073-0.203v-0c0-0 0-0.001 0-0.001 0-0.255 0.127-0.48 0.321-0.616l0.002-0.002c0.194-0.143 0.438-0.228 0.702-0.228 0.010 0 0.020 0 0.030 0l-0.001-0c0.004-0 0.009-0 0.014-0 0.298 0 0.566 0.126 0.754 0.328l0.001 0.001c0.176 0.166 0.287 0.399 0.293 0.657l0 0.001c0 0.002 0 0.004 0 0.006 0 0.184-0.066 0.353-0.176 0.484l0.001-0.001c-0.105 0.14-0.256 0.239-0.431 0.277l-0.005 0.001c-0.006 0.095-0.057 0.177-0.132 0.225l-0.001 0.001c-0.075 0.062-0.172 0.1-0.277 0.103h-0.001c-0.111-0.003-0.213-0.036-0.3-0.092l0.002 0.001c-0.098-0.063-0.15-0.133-0.15-0.208z"></path>
<path fill="#e20613" style="fill: var(--color3, #e20613)" d="M154.218 25.355c0.669 0 1.002 0.225 1.002 0.664s-0.333 0.654-1.002 0.654h-1.137v1.102h1.002c0.669 0 1.002 0.218 1.002 0.654s-0.333 0.649-1.002 0.649h-1.002v1.167h1.19c0.669 0 1.002 0.215 1.002 0.651s-0.333 0.651-1.002 0.651h-1.645c-0.037 0.004-0.079 0.007-0.122 0.007-0.227 0-0.438-0.066-0.616-0.18l0.005 0.003c-0.142-0.161-0.229-0.375-0.229-0.608 0-0.037 0.002-0.074 0.007-0.11l-0 0.004v-4.315c-0.004-0.035-0.006-0.075-0.006-0.115 0-0.247 0.081-0.475 0.219-0.659l-0.002 0.003c0.176-0.141 0.402-0.225 0.648-0.225 0.036 0 0.072 0.002 0.108 0.005l-0.004-0z"></path>
</symbol>
<symbol id="icon-gear" viewBox="0 0 32 32">
<title>gear</title>
<path fill="#fa5633" style="fill: var(--color4, #fa5633)" d="M16.012 11.859c-2.377 0-4.328 1.927-4.328 4.328 0 2.377 1.952 4.328 4.328 4.328s4.328-1.927 4.328-4.328c0-2.377-1.952-4.328-4.328-4.328zM16.012 19.515c-1.826 0-3.328-1.501-3.328-3.328s1.501-3.328 3.328-3.328 3.328 1.501 3.328 3.328-1.501 3.328-3.328 3.328z"></path>
<path fill="#78b035" style="fill: var(--color5, #78b035)" d="M27.296 19.815c-0.125-0.55-0.45-1.001-0.901-1.251l-1.126-0.651c0.1-0.575 0.15-1.151 0.15-1.701 0-0.826-0.075-1.551-0.275-2.277l1.126-0.676c1.001-0.575 1.326-1.651 0.801-2.577l-0.926-1.601c-0.375-0.626-1.076-1.051-1.801-1.051-0.325 0-0.651 0.075-0.951 0.25l-1.276 0.751c-0.976-0.851-2.102-1.476-3.353-1.851v-1.426c0-1.151-0.776-1.977-1.826-1.977h-1.851c-1.126-0.025-2.077 0.901-2.077 1.977v1.501c-1.201 0.4-2.327 1.051-3.303 1.952l-1.201-0.701c-0.35-0.2-0.726-0.3-1.101-0.3-0.651 0-1.201 0.325-1.526 0.901l-0.926 1.601c-0.25 0.45-0.35 1.001-0.225 1.526 0.125 0.55 0.45 1.001 0.926 1.276l1.176 0.65c-0.15 0.676-0.225 1.351-0.225 2.052 0 0.651 0.075 1.326 0.2 1.952l-1.051 0.6c-1.001 0.575-1.326 1.651-0.801 2.577l0.926 1.601c0.375 0.625 1.076 1.051 1.801 1.051 0.325 0 0.651-0.075 0.951-0.25l1.026-0.6c1.026 0.951 2.277 1.651 3.603 2.052v1.076c0 1.151 0.776 1.977 1.826 1.977h1.851c1.126 0 2.077-0.901 2.077-2.002l-0.025-1.151c1.326-0.45 2.552-1.176 3.553-2.152l0.976 0.575c0.35 0.2 0.726 0.3 1.101 0.3 0.651 0 1.201-0.325 1.526-0.901l0.926-1.601c0.275-0.425 0.35-1.001 0.225-1.501zM26.221 20.841l-0.926 1.601c-0.175 0.325-0.475 0.4-0.676 0.4s-0.4-0.050-0.6-0.175l-1.651-0.951-0.275 0.275c-1.026 1.076-2.327 1.876-3.753 2.277l-0.375 0.1 0.050 1.901c0 0.525-0.5 0.976-1.076 0.976h-1.851c-0.6 0-0.826-0.525-0.826-0.976v-1.826l-0.375-0.1c-1.426-0.375-2.752-1.126-3.803-2.177l-0.275-0.275-1.676 0.976c-0.125 0.075-0.275 0.125-0.45 0.125-0.375 0-0.751-0.225-0.951-0.55l-0.926-1.601c-0.3-0.525 0.050-0.976 0.45-1.201l1.701-0.976-0.1-0.375c-0.175-0.676-0.25-1.376-0.25-2.077 0-0.726 0.1-1.451 0.275-2.177l0.1-0.375-1.851-1.026c-0.225-0.125-0.375-0.35-0.425-0.626-0.075-0.275-0.025-0.575 0.125-0.801l0.926-1.601c0.175-0.325 0.475-0.4 0.676-0.4s0.4 0.050 0.6 0.175l1.851 1.076 0.275-0.275c1.051-1.026 2.202-1.701 3.528-2.077l0.325-0.1v-2.252c0-0.525 0.5-0.976 1.076-0.976h1.851c0.6 0 0.826 0.525 0.826 1.001l0.025 2.202 0.375 0.1c1.351 0.35 2.577 1.026 3.578 1.952l0.275 0.25 1.901-1.126c0.125-0.075 0.275-0.125 0.45-0.125 0.375 0 0.751 0.225 0.951 0.55l0.926 1.601c0.3 0.525-0.050 0.976-0.45 1.201l-1.801 1.051 0.125 0.375c0.225 0.751 0.325 1.501 0.325 2.377 0 0.625-0.075 1.251-0.2 1.851l-0.075 0.35 1.751 1.001c0.225 0.125 0.375 0.35 0.425 0.625 0.050 0.3 0 0.575-0.125 0.826z"></path>
<path fill="#575757" style="fill: var(--color6, #575757)" d="M7.181 3.778c0.1 0 0.2-0.025 0.3-0.1 4.554-3.253 10.833-3.578 15.762-0.901l-1.601 0.676 5.179 1.401-2.727-4.629-0.225 1.776c-5.304-2.952-12.059-2.627-16.988 0.876-0.225 0.15-0.275 0.475-0.125 0.701 0.1 0.125 0.275 0.2 0.425 0.2z"></path>
<path fill="#575757" style="fill: var(--color6, #575757)" d="M2.802 8.782l0.676 1.601 1.401-5.179-4.654 2.727 1.776 0.225c-2.952 5.304-2.627 12.059 0.876 16.988 0.1 0.125 0.25 0.2 0.4 0.2 0.1 0 0.2-0.025 0.3-0.1 0.225-0.15 0.275-0.475 0.125-0.701-3.253-4.554-3.603-10.808-0.901-15.762z"></path>
<path fill="#575757" style="fill: var(--color6, #575757)" d="M24.569 28.322c-4.554 3.253-10.833 3.578-15.787 0.901l1.601-0.676-5.179-1.401 2.727 4.629 0.225-1.776c2.402 1.351 5.104 2.002 7.806 2.002 3.253 0 6.48-0.976 9.182-2.877 0.225-0.15 0.275-0.475 0.125-0.701-0.175-0.2-0.475-0.25-0.701-0.1z"></path>
<path fill="#575757" style="fill: var(--color6, #575757)" d="M29.148 6.88c-0.15-0.225-0.475-0.275-0.701-0.125s-0.275 0.475-0.125 0.701c3.253 4.554 3.578 10.833 0.901 15.762l-0.676-1.601-1.401 5.179 4.629-2.727-1.776-0.225c2.977-5.279 2.652-12.034-0.851-16.963z"></path>
</symbol>
<symbol id="icon-app2" viewBox="0 0 33 32">
<title>app2</title>
<path fill="#575757" style="fill: var(--color6, #575757)" d="M2.037 4.71v22.148h15.847v-22.148h-15.847zM17.286 26.068h-14.651v-20.557h14.664v20.557z"></path>
<path fill="#c1ced4" opacity="0.5" style="fill: var(--color7, #c1ced4)" d="M17.68 0h-15.694c-1.095 0-1.986 0.891-1.986 1.986v27.596c0 1.095 0.891 1.986 1.986 1.986h15.694c1.095 0 1.986-0.891 1.986-1.986v-27.596c0-1.095-0.891-1.986-1.986-1.986zM17.884 26.858h-15.847v-22.148h15.847v22.148z"></path>
<path fill="#78b035" style="fill: var(--color5, #78b035)" d="M15.351 15.784c0 2.974-2.411 5.384-5.384 5.384s-5.384-2.411-5.384-5.384c0-2.974 2.411-5.384 5.384-5.384s5.384 2.411 5.384 5.384z"></path>
<path fill="#fa5633" style="fill: var(--color4, #fa5633)" d="M25.381 1.527h7.37v7.37h-7.37v-7.37z"></path>
<path fill="#fa5633" style="fill: var(--color4, #fa5633)" d="M24.617 24.63h7.37v7.37h-7.37v-7.37z"></path>
<path fill="#78b035" style="fill: var(--color5, #78b035)" d="M23.981 11.278h7.37v7.37h-7.37v-7.37z"></path>
<path fill="#575757" style="fill: var(--color6, #575757)" d="M9.967 11.583c-2.317 0-4.2 1.884-4.2 4.2s1.884 4.2 4.2 4.2 4.2-1.884 4.2-4.2-1.884-4.2-4.2-4.2zM9.967 19.335c-1.96 0-3.564-1.591-3.564-3.551s1.591-3.564 3.551-3.564 3.564 1.591 3.564 3.551v0c0 1.973-1.591 3.564-3.551 3.564z"></path>
<path fill="#575757" style="fill: var(--color6, #575757)" d="M22.848 11.723v8.261h8.083v-8.261h-8.083zM30.294 19.348h-6.81v-7.001h6.81v7.001z"></path>
<path fill="#575757" style="fill: var(--color6, #575757)" d="M22.848 0v8.261h8.083v-8.261h-8.083zM30.294 7.637h-6.81v-7.001h6.81v7.001z"></path>
<path fill="#575757" style="fill: var(--color6, #575757)" d="M22.848 23.446v8.261h8.083v-8.261h-8.083zM30.294 31.071h-6.81v-7.001h6.81v7.001z"></path>
<path fill="#575757" style="fill: var(--color6, #575757)" d="M7.103 28.894h5.728v0.636h-5.728v-0.636z"></path>
<path fill="#575757" style="fill: var(--color6, #575757)" d="M9.101 2.049h1.718v0.636h-1.718v-0.636z"></path>
<path fill="#575757" style="fill: var(--color6, #575757)" d="M8.21 15.465h3.5v0.636h-3.5v-0.636z"></path>
<path fill="#575757" style="fill: var(--color6, #575757)" d="M9.648 14.040h0.636v3.5h-0.636v-3.5z"></path>
<path fill="#fff" style="fill: var(--color8, #fff)" d="M26.45 27.787c-0.509 0-0.929-0.42-0.929-0.929s0.42-0.929 0.929-0.929 0.929 0.42 0.929 0.929-0.407 0.929-0.929 0.929zM26.45 26.565c-0.165 0-0.293 0.127-0.293 0.293s0.127 0.293 0.293 0.293 0.293-0.127 0.293-0.293-0.127-0.293-0.293-0.293z"></path>
<path fill="#fff" style="fill: var(--color8, #fff)" d="M28.576 29.862c-0.509 0-0.929-0.42-0.929-0.929s0.42-0.929 0.929-0.929 0.929 0.42 0.929 0.929-0.42 0.929-0.929 0.929zM28.576 28.64c-0.165 0-0.293 0.127-0.293 0.293s0.127 0.293 0.293 0.293 0.293-0.127 0.293-0.293-0.127-0.293-0.293-0.293z"></path>
<path fill="#fff" style="fill: var(--color8, #fff)" d="M25.622 29.412l3.402-3.402 0.45 0.45-3.402 3.402-0.45-0.45z"></path>
<path fill="#575757" style="fill: var(--color6, #575757)" d="M29.085 16.7h-2.737l-0.916-2.953h-0.7v-0.636h1.171l0.407 1.324 3.5-0.038-0.726 2.304zM26.819 16.064h1.807l0.318-1.018-2.431 0.025 0.305 0.993z"></path>
<path fill="#575757" style="fill: var(--color6, #575757)" d="M26.896 17.4c0 0.162-0.131 0.293-0.293 0.293s-0.293-0.131-0.293-0.293c0-0.162 0.131-0.293 0.293-0.293s0.293 0.131 0.293 0.293z"></path>
<path fill="#575757" style="fill: var(--color6, #575757)" d="M29.162 17.4c0 0.162-0.131 0.293-0.293 0.293s-0.293-0.131-0.293-0.293c0-0.162 0.131-0.293 0.293-0.293s0.293 0.131 0.293 0.293z"></path>
<path fill="#fff" style="fill: var(--color8, #fff)" d="M28.461 6.555c-0.649 0-1.349-0.331-1.349-1.056h0.636c0 0.344 0.509 0.42 0.713 0.42 0.713 0 0.713-0.267 0.713-0.42 0-0.344 0-0.484-0.878-0.484-0.382 0-0.675-0.102-0.891-0.318-0.305-0.306-0.305-0.726-0.305-0.878 0-0.535 0.382-1.133 1.464-1.133 0.445 0 0.789 0.127 1.006 0.382 0.293 0.331 0.229 0.751 0.229 0.789l-0.624-0.089c0 0 0.025-0.165-0.076-0.28-0.115-0.127-0.344-0.153-0.509-0.153-0.726 0-0.827 0.305-0.827 0.484 0 0.127 0 0.331 0.115 0.445 0.089 0.089 0.229 0.127 0.433 0.127 0.764 0 1.515 0.089 1.515 1.12-0.013 0.382-0.191 1.044-1.362 1.044z"></path>
<path fill="#fff" style="fill: var(--color8, #fff)" d="M28.143 2.457h0.636v0.547h-0.636v-0.547z"></path>
<path fill="#fff" style="fill: var(--color8, #fff)" d="M28.143 6.237h0.636v0.636h-0.636v-0.636z"></path>
<path fill="#575757" style="fill: var(--color6, #575757)" d="M16.229 15.313h0.904v0.904h-0.904v-0.904z"></path>
<path fill="#575757" style="fill: var(--color6, #575757)" d="M17.769 15.313h0.904v0.904h-0.904v-0.904z"></path>
<path fill="#575757" style="fill: var(--color6, #575757)" d="M19.322 15.313h0.904v0.904h-0.904v-0.904z"></path>
<path fill="#575757" style="fill: var(--color6, #575757)" d="M20.862 15.313h0.904v0.904h-0.904v-0.904z"></path>
<path fill="#575757" style="fill: var(--color6, #575757)" d="M14.16 20.3l0.607-0.669 0.669 0.607-0.607 0.669-0.669-0.607z"></path>
<path fill="#575757" style="fill: var(--color6, #575757)" d="M15.3 21.332l0.607-0.669 0.669 0.607-0.607 0.669-0.669-0.607z"></path>
<path fill="#575757" style="fill: var(--color6, #575757)" d="M16.45 22.371l0.607-0.669 0.669 0.607-0.607 0.669-0.669-0.607z"></path>
<path fill="#575757" style="fill: var(--color6, #575757)" d="M17.582 23.411l0.607-0.669 0.669 0.607-0.607 0.669-0.669-0.607z"></path>
<path fill="#575757" style="fill: var(--color6, #575757)" d="M18.663 24.39l0.607-0.669 0.669 0.607-0.607 0.669-0.669-0.607z"></path>
<path fill="#575757" style="fill: var(--color6, #575757)" d="M19.745 25.368l0.607-0.669 0.669 0.607-0.607 0.669-0.669-0.607z"></path>
<path fill="#575757" style="fill: var(--color6, #575757)" d="M20.827 26.347l0.607-0.669 0.669 0.607-0.607 0.669-0.669-0.607z"></path>
<path fill="#575757" style="fill: var(--color6, #575757)" d="M14.162 11.407l0.669-0.607 0.607 0.669-0.669 0.607-0.607-0.669z"></path>
<path fill="#575757" style="fill: var(--color6, #575757)" d="M15.302 10.363l0.669-0.607 0.607 0.669-0.669 0.607-0.607-0.669z"></path>
<path fill="#575757" style="fill: var(--color6, #575757)" d="M16.451 9.329l0.669-0.607 0.607 0.669-0.669 0.607-0.607-0.669z"></path>
<path fill="#575757" style="fill: var(--color6, #575757)" d="M17.592 8.285l0.669-0.607 0.607 0.669-0.669 0.607-0.607-0.669z"></path>
<path fill="#575757" style="fill: var(--color6, #575757)" d="M18.673 7.304l0.669-0.607 0.607 0.669-0.669 0.607-0.607-0.669z"></path>
<path fill="#575757" style="fill: var(--color6, #575757)" d="M19.744 6.331l0.669-0.607 0.607 0.669-0.669 0.607-0.607-0.669z"></path>
<path fill="#575757" style="fill: var(--color6, #575757)" d="M20.834 5.36l0.669-0.607 0.607 0.669-0.669 0.607-0.607-0.669z"></path>
</symbol>
<symbol id="icon-cme2" viewBox="0 0 33 32">
<title>cme2</title>
<path fill="#78b035" style="fill: var(--color5, #78b035)" d="M17.209 9.089c-3.853 0-6.982 3.129-6.982 6.982s3.129 6.982 6.982 6.982 6.982-3.129 6.982-6.982-3.116-6.982-6.982-6.982v0zM17.209 20.144c-2.25 0-4.073-1.823-4.073-4.073s1.823-4.073 4.073-4.073 4.073 1.823 4.073 4.073c0 2.25-1.823 4.073-4.073 4.073v0z"></path>
<path fill="#575757" style="fill: var(--color6, #575757)" d="M17.209 14.158c-1.060 0-1.914 0.853-1.914 1.914s0.853 1.914 1.914 1.914c1.060 0 1.914-0.853 1.914-1.914v0c0-1.060-0.853-1.914-1.914-1.914zM17.209 17.416c-0.75 0-1.345-0.608-1.345-1.345s0.608-1.345 1.345-1.345c0.75 0 1.345 0.608 1.345 1.345s-0.595 1.345-1.345 1.345v0z"></path>
<path fill="#575757" style="fill: var(--color6, #575757)" d="M29.505 7.046c-1.060 0-1.901 0.853-1.901 1.914s0.853 1.901 1.914 1.901c1.047 0 1.901-0.853 1.901-1.914 0-1.047-0.853-1.901-1.914-1.901 0 0 0 0 0 0zM29.505 10.305c-0.75 0-1.345-0.608-1.345-1.345s0.608-1.345 1.345-1.345c0.75 0 1.345 0.608 1.345 1.345s-0.595 1.345-1.345 1.345v0z"></path>
<path fill="#575757" style="fill: var(--color6, #575757)" d="M5.133 7.046c-1.060 0-1.914 0.853-1.914 1.914s0.853 1.901 1.914 1.901 1.914-0.853 1.914-1.914-0.853-1.901-1.914-1.901v0zM5.133 10.305c-0.75 0-1.345-0.608-1.345-1.345 0-0.75 0.608-1.345 1.345-1.345 0.75 0 1.345 0.608 1.345 1.345 0 0 0 0 0 0 0 0.737-0.595 1.345-1.345 1.345z"></path>
<path fill="#575757" style="fill: var(--color6, #575757)" d="M5.133 21.139c-1.060 0-1.914 0.853-1.914 1.914s0.853 1.914 1.914 1.914 1.914-0.853 1.914-1.914v0c0-1.060-0.853-1.914-1.914-1.914zM5.133 24.398c-0.75 0-1.345-0.608-1.345-1.345s0.608-1.345 1.345-1.345 1.345 0.608 1.345 1.345-0.595 1.345-1.345 1.345v0z"></path>
<path fill="#575757" style="fill: var(--color6, #575757)" d="M29.505 21.139c-1.060 0-1.901 0.853-1.901 1.914s0.853 1.901 1.914 1.901c1.047 0 1.901-0.853 1.901-1.914 0-1.047-0.853-1.901-1.914-1.901 0 0 0 0 0 0zM29.505 24.398c-0.75 0-1.345-0.608-1.345-1.345s0.608-1.345 1.345-1.345 1.345 0.608 1.345 1.345-0.595 1.345-1.345 1.345v0z"></path>
<path fill="#575757" style="fill: var(--color6, #575757)" d="M17.209 28.186c-1.060 0-1.914 0.853-1.914 1.914s0.853 1.914 1.914 1.914c1.060 0 1.914-0.853 1.914-1.914 0 0 0 0 0 0 0-1.060-0.853-1.914-1.914-1.914zM17.209 31.444c-0.75 0-1.345-0.608-1.345-1.345s0.608-1.345 1.345-1.345c0.75 0 1.345 0.608 1.345 1.345s-0.595 1.345-1.345 1.345v0z"></path>
<path fill="#575757" style="fill: var(--color6, #575757)" d="M17.338 0c-1.060 0-1.914 0.853-1.914 1.914s0.853 1.914 1.914 1.914c1.060 0 1.914-0.853 1.914-1.914 0 0 0 0 0 0 0-1.060-0.853-1.914-1.914-1.914zM17.338 3.258c-0.75 0-1.345-0.608-1.345-1.345s0.608-1.345 1.345-1.345 1.345 0.608 1.345 1.345-0.595 1.345-1.345 1.345v0z"></path>
<path fill="#fa5633" style="fill: var(--color4, #fa5633)" d="M14.817 27.126c0 0.857-0.695 1.552-1.552 1.552s-1.552-0.695-1.552-1.552c0-0.857 0.695-1.552 1.552-1.552s1.552 0.695 1.552 1.552z"></path>
<path fill="#fa5633" style="fill: var(--color4, #fa5633)" d="M23.686 2.314c0 0.964-0.781 1.745-1.745 1.745s-1.745-0.781-1.745-1.745c0-0.964 0.781-1.745 1.745-1.745s1.745 0.781 1.745 1.745z"></path>
<path fill="#c1ced4" opacity="0.5" style="fill: var(--color7, #c1ced4)" d="M4.086 17.623c0 1.128-0.915 2.043-2.043 2.043s-2.043-0.915-2.043-2.043c0-1.128 0.915-2.043 2.043-2.043s2.043 0.915 2.043 2.043z"></path>
<path fill="#c1ced4" opacity="0.5" style="fill: var(--color7, #c1ced4)" d="M10.731 4.836c0 0.671-0.544 1.215-1.215 1.215s-1.215-0.544-1.215-1.215c0-0.671 0.544-1.215 1.215-1.215s1.215 0.544 1.215 1.215z"></path>
<path fill="#c1ced4" opacity="0.5" style="fill: var(--color7, #c1ced4)" d="M6.736 4.836c0 0.307-0.249 0.556-0.556 0.556s-0.556-0.249-0.556-0.556c0-0.307 0.249-0.556 0.556-0.556s0.556 0.249 0.556 0.556z"></path>
<path fill="#fa5633" style="fill: var(--color4, #fa5633)" d="M10.731 8.184c0 0.236-0.191 0.427-0.427 0.427s-0.427-0.191-0.427-0.427c0-0.236 0.191-0.427 0.427-0.427s0.427 0.191 0.427 0.427z"></path>
<path fill="#fa5633" style="fill: var(--color4, #fa5633)" d="M5.766 13.912c0 0.286-0.232 0.517-0.517 0.517s-0.517-0.232-0.517-0.517c0-0.286 0.232-0.517 0.517-0.517s0.517 0.232 0.517 0.517z"></path>
<path fill="#fa5633" style="fill: var(--color4, #fa5633)" d="M12.024 30.436c0 0.286-0.232 0.517-0.517 0.517s-0.517-0.232-0.517-0.517c0-0.286 0.232-0.517 0.517-0.517s0.517 0.232 0.517 0.517z"></path>
<path fill="#fa5633" style="fill: var(--color4, #fa5633)" d="M23.932 27.772c0 0.5-0.405 0.905-0.905 0.905s-0.905-0.405-0.905-0.905c0-0.5 0.405-0.905 0.905-0.905s0.905 0.405 0.905 0.905z"></path>
<path fill="#fa5633" style="fill: var(--color4, #fa5633)" d="M32.155 16.86c0 0.614-0.498 1.112-1.112 1.112s-1.112-0.498-1.112-1.112c0-0.614 0.498-1.112 1.112-1.112s1.112 0.498 1.112 1.112z"></path>
<path fill="#c1ced4" opacity="0.5" style="fill: var(--color7, #c1ced4)" d="M32.97 20.415c0 0.314-0.255 0.569-0.569 0.569s-0.569-0.255-0.569-0.569c0-0.314 0.255-0.569 0.569-0.569s0.569 0.255 0.569 0.569z"></path>
<path fill="#c1ced4" opacity="0.5" style="fill: var(--color7, #c1ced4)" d="M23.118 6.051c0 0.336-0.272 0.608-0.608 0.608s-0.608-0.272-0.608-0.608c0-0.336 0.272-0.608 0.608-0.608s0.608 0.272 0.608 0.608z"></path>
<path fill="#575757" style="fill: var(--color6, #575757)" d="M17.067 20.286c-3.103 0-6.762-0.97-10.537-4.111l-0.297-0.246 0.284-0.246c0.103-0.091 2.612-2.237 6.516-3.336 3.62-1.008 9.128-1.254 14.882 3.323l0.297 0.233-0.284 0.259c-0.103 0.090-2.612 2.34-6.529 3.478-1.228 0.388-2.702 0.646-4.331 0.646zM7.253 15.942c4.357 3.491 9.063 4.538 13.989 3.090 3.013-0.879 5.21-2.482 5.973-3.090-4.344-3.336-9.050-4.344-13.964-2.974-3.025 0.853-5.223 2.379-5.999 2.974z"></path>
<path fill="#575757" style="fill: var(--color6, #575757)" d="M16.873 4.435h0.75v0.75h-0.75v-0.75z"></path>
<path fill="#575757" style="fill: var(--color6, #575757)" d="M16.873 5.779h0.75v0.75h-0.75v-0.75z"></path>
<path fill="#575757" style="fill: var(--color6, #575757)" d="M16.873 7.137h0.75v0.75h-0.75v-0.75z"></path>
<path fill="#575757" style="fill: var(--color6, #575757)" d="M16.873 24.023h0.75v0.75h-0.75v-0.75z"></path>
<path fill="#575757" style="fill: var(--color6, #575757)" d="M16.873 25.367h0.75v0.75h-0.75v-0.75z"></path>
<path fill="#575757" style="fill: var(--color6, #575757)" d="M16.873 26.725h0.75v0.75h-0.75v-0.75z"></path>
<path fill="#575757" style="fill: var(--color6, #575757)" d="M24.044 20.318l0.374-0.65 0.65 0.374-0.374 0.65-0.65-0.374z"></path>
<path fill="#575757" style="fill: var(--color6, #575757)" d="M25.212 20.998l0.374-0.65 0.65 0.374-0.374 0.65-0.65-0.374z"></path>
<path fill="#575757" style="fill: var(--color6, #575757)" d="M26.384 21.669l0.374-0.65 0.65 0.374-0.374 0.65-0.65-0.374z"></path>
<path fill="#575757" style="fill: var(--color6, #575757)" d="M7.14 10.608l0.374-0.65 0.65 0.374-0.374 0.65-0.65-0.374z"></path>
<path fill="#575757" style="fill: var(--color6, #575757)" d="M8.314 11.277l0.374-0.65 0.65 0.374-0.374 0.65-0.65-0.374z"></path>
<path fill="#575757" style="fill: var(--color6, #575757)" d="M9.497 11.953l0.374-0.65 0.65 0.374-0.374 0.65-0.65-0.374z"></path>
<path fill="#575757" style="fill: var(--color6, #575757)" d="M7.145 21.393l0.65-0.374 0.374 0.65-0.65 0.374-0.374-0.65z"></path>
<path fill="#575757" style="fill: var(--color6, #575757)" d="M8.316 20.707l0.65-0.374 0.374 0.65-0.65 0.374-0.374-0.65z"></path>
<path fill="#575757" style="fill: var(--color6, #575757)" d="M9.492 20.032l0.65-0.374 0.374 0.65-0.65 0.374-0.374-0.65z"></path>
<path fill="#575757" style="fill: var(--color6, #575757)" d="M24.043 11.678l0.65-0.374 0.374 0.65-0.65 0.374-0.374-0.65z"></path>
<path fill="#575757" style="fill: var(--color6, #575757)" d="M25.214 10.993l0.65-0.374 0.374 0.65-0.65 0.374-0.374-0.65z"></path>
<path fill="#575757" style="fill: var(--color6, #575757)" d="M26.379 10.324l0.65-0.374 0.374 0.65-0.65 0.374-0.374-0.65z"></path>
</symbol>
<symbol id="icon-cr2" viewBox="0 0 32 32">
<title>cr2</title>
<path fill="#c1ced4" opacity="0.5" style="fill: var(--color7, #c1ced4)" d="M1.568 4.806v5.559h1.275v1.339l1.39-1.339h6.183v-5.559z"></path>
<path fill="#78b035" style="fill: var(--color5, #78b035)" d="M15.159 2.014c0 1.112-0.902 2.014-2.014 2.014s-2.014-0.902-2.014-2.014c0-1.113 0.902-2.014 2.014-2.014s2.014 0.902 2.014 2.014z"></path>
<path fill="#c1ced4" opacity="0.5" style="fill: var(--color7, #c1ced4)" d="M11.27 23.688c0 0.556-0.451 1.007-1.007 1.007s-1.007-0.451-1.007-1.007c0-0.556 0.451-1.007 1.007-1.007s1.007 0.451 1.007 1.007z"></path>
<path fill="#575757" style="fill: var(--color6, #575757)" d="M5.163 16.829c-1.696 0-3.072 1.377-3.072 3.072s1.377 3.072 3.072 3.072 3.073-1.377 3.073-3.072-1.377-3.072-3.072-3.072v0zM5.163 22.349c-1.351 0-2.448-1.096-2.448-2.448s1.096-2.448 2.448-2.448 2.448 1.096 2.448 2.448v0c0 1.351-1.096 2.448-2.448 2.448 0 0.013 0 0.013 0 0v0z"></path>
<path fill="#575757" style="fill: var(--color6, #575757)" d="M2.677 7.777h4.717v0.637h-4.717v-0.637z"></path>
<path fill="#575757" style="fill: var(--color6, #575757)" d="M32.446 24.3h-8.351v-0.637h7.713v-5.163h0.637z"></path>
<path fill="#575757" style="fill: var(--color6, #575757)" d="M12.277 25.919h9.46v0.637h-9.46v-0.637z"></path>
<path fill="#575757" style="fill: var(--color6, #575757)" d="M12.277 27.283h9.46v0.637h-9.46v-0.637z"></path>
<path fill="#575757" style="fill: var(--color6, #575757)" d="M12.277 28.634h9.46v0.637h-9.46v-0.637z"></path>
<path fill="#575757" style="fill: var(--color6, #575757)" d="M12.277 29.998h9.46v0.637h-9.46v-0.637z"></path>
<path fill="#575757" style="fill: var(--color6, #575757)" d="M14.661 31.363h4.679v0.637h-4.679v-0.637z"></path>
<path fill="#575757" style="fill: var(--color6, #575757)" d="M0 6.375h8.389v0.637h-8.389v-0.637z"></path>
<path fill="#575757" style="fill: var(--color6, #575757)" d="M13.106 26.237h0.637v4.080h-0.637v-4.080z"></path>
<path fill="#575757" style="fill: var(--color6, #575757)" d="M20.296 26.237h0.637v4.080h-0.637v-4.080z"></path>
<path fill="#575757" style="fill: var(--color6, #575757)" d="M6.476 19.99l-1.925-1.109v2.218z"></path>
<path fill="#575757" style="fill: var(--color6, #575757)" d="M29.45 9.88c-0.663 0-1.186 0.535-1.186 1.186s0.535 1.186 1.186 1.186 1.186-0.535 1.186-1.186-0.523-1.186-1.186-1.186v0zM29.45 11.704c-0.357 0-0.637-0.28-0.637-0.637s0.28-0.637 0.637-0.637 0.637 0.28 0.637 0.637-0.28 0.637-0.637 0.637z"></path>
<path fill="#575757" style="fill: var(--color6, #575757)" d="M30.661 11.066h-0.637v-4.373l0.637-0.064c0 0.013 0.153 0.778 0.676 0.778 0.816 0 1.122 0.676 1.135 1.135l-0.637 0.025c0-0.115-0.051-0.51-0.497-0.51-0.268 0-0.484-0.089-0.676-0.217v3.226z"></path>
<path fill="#fa5633" style="fill: var(--color4, #fa5633)" d="M17.096 18.002c-0.064 0.752-0.727 1.3-1.479 1.237-0.65-0.064-1.173-0.574-1.237-1.237-0.433 0.612-1.288 0.752-1.9 0.319-0.535-0.382-0.714-1.084-0.446-1.67-0.688 0.306-1.492 0.013-1.81-0.676-0.268-0.599-0.076-1.3 0.446-1.67-0.752-0.064-1.3-0.727-1.237-1.479 0.064-0.65 0.574-1.173 1.237-1.237-0.612-0.433-0.765-1.288-0.331-1.9 0.382-0.535 1.084-0.727 1.683-0.446-0.293-0.701 0-1.504 0.688-1.823 0.599-0.268 1.3-0.077 1.67 0.446 0.064-0.752 0.727-1.3 1.479-1.237 0.65 0.064 1.173 0.574 1.237 1.237v10.135z"></path>
<path fill="#fa5633" style="fill: var(--color4, #fa5633)" d="M18.269 18.002c0.064 0.752 0.727 1.3 1.479 1.237 0.65-0.064 1.173-0.574 1.237-1.237 0.446 0.599 1.3 0.727 1.912 0.28 0.51-0.382 0.688-1.058 0.433-1.632 0.688 0.306 1.492 0.013 1.81-0.676 0.268-0.599 0.076-1.3-0.446-1.67 0.752-0.064 1.3-0.727 1.237-1.479-0.064-0.65-0.574-1.173-1.237-1.237 0.612-0.433 0.765-1.288 0.331-1.9-0.382-0.535-1.084-0.727-1.683-0.446 0.306-0.688 0.013-1.492-0.676-1.81-0.599-0.268-1.3-0.077-1.67 0.446-0.064-0.752-0.727-1.3-1.479-1.237-0.65 0.064-1.173 0.574-1.237 1.237l-0.013 10.123z"></path>
<path fill="#575757" style="fill: var(--color6, #575757)" d="M14.865 18.665c-0.676 0-1.275-0.395-1.555-1.007-0.765 0.548-1.836 0.37-2.384-0.395-0.242-0.331-0.344-0.752-0.306-1.16-0.663 0.064-1.313-0.268-1.645-0.841l0.51-0.293c0.28 0.497 0.905 0.701 1.428 0.459l0.727-0.331-0.331 0.727c-0.255 0.561 0 1.211 0.561 1.466 0.484 0.217 1.045 0.064 1.351-0.357l0.459-0.65 0.076 0.803c0.064 0.612 0.599 1.058 1.211 0.994 0.523-0.051 0.943-0.459 0.994-0.982v-10.441c-0.064-0.612-0.612-1.045-1.224-0.982-0.523 0.051-0.931 0.472-0.982 0.994l-0.076 0.803-0.459-0.65c-0.357-0.497-1.058-0.612-1.555-0.242-0.421 0.306-0.574 0.867-0.357 1.351l0.331 0.727-0.727-0.331c-0.523-0.242-1.135-0.038-1.428 0.459l-0.51-0.293c0.331-0.586 0.982-0.918 1.645-0.841-0.089-0.943 0.599-1.772 1.53-1.861 0.408-0.038 0.816 0.077 1.16 0.306 0.382-0.854 1.39-1.237 2.257-0.854 0.561 0.255 0.943 0.79 0.994 1.39v10.505c-0.076 0.867-0.816 1.543-1.696 1.53z"></path>
<path fill="#575757" style="fill: var(--color6, #575757)" d="M14.853 8.504c-0.943 0-1.708-0.765-1.708-1.708s0.765-1.708 1.708-1.708v0.599c-0.612 0.026-1.096 0.535-1.084 1.16 0.025 0.586 0.497 1.058 1.084 1.084v0.574z"></path>
<path fill="#575757" style="fill: var(--color6, #575757)" d="M14.853 11.334v-0.586c0.612 0 1.122-0.497 1.122-1.122h0.586c0 0.943-0.765 1.708-1.708 1.708z"></path>
<path fill="#575757" style="fill: var(--color6, #575757)" d="M9.778 13.578c-0.943 0-1.708-0.765-1.708-1.708s0.765-1.708 1.708-1.708c0 0 0 0 0 0v0.599c-0.612 0-1.122 0.497-1.122 1.122 0 0.612 0.497 1.122 1.122 1.122v0.574z"></path>
<path fill="#575757" style="fill: var(--color6, #575757)" d="M9.256 10.556c-0.663-0.663-0.663-1.747 0-2.422 0.319-0.319 0.752-0.497 1.211-0.497 0.752 0 1.415 0.497 1.632 1.211l-0.561 0.166c-0.178-0.586-0.803-0.931-1.402-0.739-0.472 0.14-0.79 0.574-0.79 1.071 0 0.293 0.115 0.586 0.331 0.79l-0.421 0.421z"></path>
<path fill="#575757" style="fill: var(--color6, #575757)" d="M10.454 16.14c-0.943 0-1.708-0.765-1.708-1.708 0-0.688 0.408-1.313 1.045-1.581l0.229 0.548c-0.574 0.242-0.829 0.905-0.586 1.466 0.242 0.574 0.905 0.829 1.466 0.586 0.268-0.115 0.484-0.331 0.599-0.599l0.548 0.229c-0.28 0.65-0.905 1.058-1.594 1.058z"></path>
<path fill="#575757" style="fill: var(--color6, #575757)" d="M14.853 18.665c-0.943 0-1.708-0.765-1.708-1.708s0.765-1.708 1.708-1.708c0 0 0 0 0 0v0.599c-0.612 0-1.122 0.497-1.122 1.122s0.497 1.122 1.122 1.122v0.574z"></path>
<path fill="#575757" style="fill: var(--color6, #575757)" d="M16.561 14.126h-0.599c0-0.612-0.497-1.122-1.122-1.122v-0.586c0.956 0 1.721 0.765 1.721 1.708z"></path>
<path fill="#575757" style="fill: var(--color6, #575757)" d="M14.317 13.641h-0.599c0-0.612-0.497-1.122-1.122-1.122v-0.586c0.956 0 1.721 0.765 1.721 1.708z"></path>
<path fill="#575757" style="fill: var(--color6, #575757)" d="M12.609 11.563v-0.599c0.612 0 1.122-0.497 1.122-1.122h0.599c-0.013 0.943-0.778 1.721-1.721 1.721 0 0 0 0 0 0z"></path>
<path fill="#575757" style="fill: var(--color6, #575757)" d="M18.563 18.665c-0.88 0-1.619-0.663-1.696-1.543v-10.505c0.089-0.931 0.918-1.619 1.849-1.543 0.612 0.051 1.147 0.433 1.39 0.994 0.765-0.548 1.836-0.37 2.384 0.395 0.242 0.331 0.344 0.752 0.306 1.16 0.663-0.064 1.313 0.268 1.645 0.841l-0.51 0.293c-0.28-0.497-0.905-0.701-1.428-0.459l-0.727 0.331 0.331-0.727c0.255-0.561 0-1.211-0.561-1.466-0.484-0.217-1.045-0.064-1.351 0.357l-0.459 0.65-0.076-0.803c-0.064-0.612-0.599-1.058-1.211-0.994-0.523 0.051-0.943 0.459-0.994 0.982v10.454c0.064 0.612 0.612 1.045 1.224 0.982 0.523-0.051 0.931-0.472 0.982-0.994l0.076-0.803 0.459 0.65c0.357 0.497 1.058 0.612 1.555 0.242 0.421-0.306 0.574-0.867 0.357-1.351l-0.331-0.727 0.727 0.331c0.523 0.242 1.135 0.038 1.428-0.459l0.51 0.293c-0.331 0.586-0.982 0.918-1.645 0.841 0.089 0.943-0.599 1.772-1.53 1.861-0.408 0.038-0.816-0.076-1.16-0.306-0.268 0.637-0.88 1.020-1.543 1.020z"></path>
<path fill="#575757" style="fill: var(--color6, #575757)" d="M18.575 8.504v-0.599c0.612 0.026 1.135-0.459 1.16-1.084 0.026-0.612-0.459-1.135-1.084-1.16-0.026 0-0.051 0-0.076 0v-0.586c0.943 0 1.708 0.765 1.708 1.708 0 0.956-0.765 1.721-1.708 1.721 0 0 0 0 0 0v0z"></path>
<path fill="#575757" style="fill: var(--color6, #575757)" d="M18.575 11.334c-0.943 0-1.708-0.765-1.708-1.708h0.586c0 0.612 0.497 1.122 1.122 1.122v0.586z"></path>
<path fill="#575757" style="fill: var(--color6, #575757)" d="M23.649 13.578v-0.599c0.612 0 1.122-0.497 1.122-1.122 0-0.612-0.497-1.122-1.122-1.122v-0.586c0.943 0 1.708 0.765 1.708 1.708 0 0.956-0.765 1.721-1.708 1.721 0 0 0 0 0 0z"></path>
<path fill="#575757" style="fill: var(--color6, #575757)" d="M24.172 10.556l-0.421-0.421c0.433-0.433 0.446-1.147 0.013-1.581-0.217-0.217-0.497-0.331-0.803-0.331-0.497 0-0.931 0.319-1.071 0.79l-0.561-0.166c0.268-0.905 1.224-1.415 2.129-1.147 0.727 0.217 1.224 0.88 1.224 1.645 0 0.459-0.191 0.892-0.51 1.211z"></path>
<path fill="#575757" style="fill: var(--color6, #575757)" d="M22.961 16.14c-0.688 0-1.313-0.408-1.581-1.045l0.548-0.229c0.242 0.574 0.892 0.841 1.466 0.599s0.841-0.892 0.599-1.466c-0.115-0.268-0.331-0.484-0.599-0.599l0.229-0.548c0.867 0.37 1.275 1.377 0.905 2.244-0.255 0.637-0.88 1.045-1.568 1.045z"></path>
<path fill="#575757" style="fill: var(--color6, #575757)" d="M18.575 18.665v-0.586c0.612 0 1.122-0.497 1.122-1.122 0-0.612-0.497-1.122-1.122-1.122v-0.599c0.943 0 1.708 0.765 1.708 1.708 0 0.956-0.765 1.721-1.708 1.721v0z"></path>
<path fill="#575757" style="fill: var(--color6, #575757)" d="M17.453 14.126h-0.586c0-0.943 0.765-1.708 1.708-1.708v0.586c-0.625 0-1.122 0.497-1.122 1.122 0 0 0 0 0 0z"></path>
<path fill="#575757" style="fill: var(--color6, #575757)" d="M19.697 13.641h-0.586c0-0.943 0.765-1.708 1.708-1.708v0.599c-0.625-0.013-1.122 0.497-1.122 1.109z"></path>
<path fill="#575757" style="fill: var(--color6, #575757)" d="M20.819 11.563c-0.943 0-1.708-0.765-1.708-1.708h0.586c0 0.612 0.497 1.109 1.122 1.109v0.599z"></path>
<path fill="#78b035" style="fill: var(--color5, #78b035)" d="M23.433 17.211v5.457h8.045v-5.457h-8.045zM27.194 18.537c0.293 0 0.523 0.229 0.523 0.523s-0.229 0.523-0.523 0.523-0.523-0.229-0.523-0.523c0 0 0 0 0 0 0-0.293 0.242-0.523 0.523-0.523v0zM28.277 21.928h-3.226l1.619-1.747 0.51 0.548 1.415-1.53 2.524 2.716h-2.843z"></path>
<path fill="#c1ced4" opacity="0.5" style="fill: var(--color7, #c1ced4)" d="M24.848 18.588c3.519-4.335 2.869-10.709-1.466-14.228s-10.709-2.869-14.228 1.466c-3.021 3.723-3.021 9.039 0 12.762h-0.013l0.038 0.026c0.395 0.484 0.841 0.931 1.326 1.339 1.16 1.326 2.639 3.519 2.639 5.979h7.739c0-2.461 1.479-4.653 2.639-5.992 0.484-0.408 0.918-0.854 1.326-1.339l0.038-0.026-0.038 0.013zM16.994 4.526c4.245 0 7.688 3.442 7.688 7.688s-3.442 7.688-7.688 7.688-7.688-3.442-7.688-7.688v0c0-4.245 3.442-7.688 7.688-7.688z"></path>
<path fill="#575757" style="fill: var(--color6, #575757)" d="M20.335 1.084v3.251h4.743v-3.251h-4.743zM24.44 3.71h-3.48v-1.989h3.48v1.989z"></path>
</symbol>
<symbol id="icon-ds2" viewBox="0 0 35 32">
<title>ds2</title>
<path fill="#575757" style="fill: var(--color6, #575757)" d="M7.989 4.754c-1.153 0-2.082 0.928-2.082 2.082s0.928 2.082 2.082 2.082 2.082-0.928 2.082-2.082-0.942-2.082-2.082-2.082v0zM7.989 8.299c-0.816 0-1.463-0.661-1.463-1.463s0.647-1.477 1.463-1.477c0.816 0 1.463 0.661 1.463 1.463 0 0 0 0 0 0 0 0.816-0.647 1.477-1.463 1.477 0 0 0 0 0 0v0z"></path>
<path fill="#575757" style="fill: var(--color6, #575757)" d="M6.372 28.877v2.236c0 0.492 0.394 0.886 0.886 0.886 0 0 0 0 0 0h23.828c0.492 0 0.886-0.394 0.886-0.886v0-2.236h-25.6zM31.156 31.086h-23.954v-1.449h23.954v1.449z"></path>
<path fill="#78b035" style="fill: var(--color5, #78b035)" d="M0 7.455v10.043h2.307v2.405l2.504-2.405h11.168v-10.043h-15.979zM2.096 14.924h-1.013v-1.378h1.013v1.378zM3.362 14.924h-1.027v-2.462h1.027v2.462zM4.628 14.924h-1.027v-1.927h1.027v1.927zM5.894 14.924h-1.027v-4.796h1.027v4.796zM7.16 14.924h-1.027v-3.488h1.027v3.488zM8.425 14.924h-1.027v-5.711h1.027v5.711zM9.691 14.924h-1.027v-3.038h1.027v3.038zM10.957 14.924h-1.027v-2.462h1.027v2.462zM12.223 14.924h-1.027v-4.796h1.027v4.796zM13.489 14.924h-1.027v-6.934h1.027v6.934z"></path>
<path fill="#fa5633" style="fill: var(--color4, #fa5633)" d="M32.338 10.521c0 1.072-0.869 1.941-1.941 1.941s-1.941-0.869-1.941-1.941c0-1.072 0.869-1.941 1.941-1.941s1.941 0.869 1.941 1.941z"></path>
<path fill="#78b035" style="fill: var(--color5, #78b035)" d="M25.684 9.607l-1.941-2.222c0.605-0.534 0.83-1.378 0.563-2.138l2.785-0.985c0.675 1.899 0.127 4.023-1.407 5.345v0z"></path>
<path fill="#c1ced4" opacity="0.5" style="fill: var(--color7, #c1ced4)" d="M31.086 11.534h-23.814c-0.492 0-0.886 0.394-0.886 0.886v16.443h25.6v-16.443c-0.014-0.492-0.408-0.886-0.9-0.886 0 0 0 0 0 0zM30.284 27.189h-22.224v-13.925h22.224v13.925z"></path>
<path fill="#c1ced4" opacity="0.5" style="fill: var(--color7, #c1ced4)" d="M14.249 5.275c0 0.427-0.346 0.774-0.774 0.774s-0.774-0.346-0.774-0.774c0-0.427 0.346-0.774 0.774-0.774s0.774 0.346 0.774 0.774z"></path>
<path fill="#fa5633" style="fill: var(--color4, #fa5633)" d="M22.59 10.057v-2.532c0.436 0 0.675-0.042 1.027-0.281l1.702 1.941c-0.802 0.549-1.758 0.858-2.729 0.872z"></path>
<path fill="#575757" style="fill: var(--color6, #575757)" d="M3.629 27.71l-0.492-0.492 6.076-6.076 2.757 2.757 3.263-3.263 1.393 1.393 3.615-3.615 1.885 1.885 1.983-1.983 1.28 1.28 4.192-4.206 1.857 1.857 2.518-2.518 0.506 0.492-3.024 3.024-1.857-1.857-4.192 4.192-1.28-1.266-1.983 1.969-1.885-1.871-3.615 3.615-1.393-1.393-3.263 3.263-2.757-2.757z"></path>
<path fill="#575757" style="fill: var(--color6, #575757)" d="M34.476 17.47l-0.478-0.014 0.084-2.349-2.363 0.084-0.014-0.478 2.869-0.113z"></path>
<path fill="#78b035" style="fill: var(--color5, #78b035)" d="M25.22 15.374c0 0.583-0.472 1.055-1.055 1.055s-1.055-0.472-1.055-1.055c0-0.583 0.472-1.055 1.055-1.055s1.055 0.472 1.055 1.055z"></path>
<path fill="#c1ced4" opacity="0.5" style="fill: var(--color7, #c1ced4)" d="M26.177 6.048c0 1.903-1.543 3.446-3.446 3.446s-3.446-1.543-3.446-3.446c0-1.903 1.543-3.446 3.446-3.446s3.446 1.543 3.446 3.446z"></path>
<path fill="#575757" style="fill: var(--color6, #575757)" d="M23.181 6.597l-5.176-4.346 0.239-0.267c1.139-1.266 2.771-1.983 4.473-1.983 0 0 0.014 0 0.014 0 0.295 0 0.591 0.028 0.886 0.070l0.338 0.056-0.774 6.47zM19.031 2.194l3.601 3.024 0.549-4.501c-0.141-0.014-0.295-0.014-0.45-0.014 0 0-0.014 0-0.014 0-1.378 0-2.701 0.534-3.685 1.491z"></path>
<path fill="#fa5633" style="fill: var(--color4, #fa5633)" d="M6.372 28.877l4.22-4.22 2.11 2.11 2.096-2.096 0.914 0.914 2.813-2.813 1.477 1.477 1.28-1.28 0.675 0.661 2.757-2.757 1.604 1.604 2.602-2.602v9.002z"></path>
</symbol>
<symbol id="icon-pr2" viewBox="0 0 34 32">
<title>pr2</title>
<path fill="#575757" style="fill: var(--color6, #575757)" d="M5.884 0v3.41h19.323v-3.41h-19.323zM24.605 2.674h-18.186v-2.006h18.186v2.006z"></path>
<path fill="#fa5633" style="fill: var(--color4, #fa5633)" d="M1.538 12.771h6.793v6.793h-6.793v-6.793z"></path>
<path fill="#e2e2e2" style="fill: var(--color9, #e2e2e2)" d="M16.167 23.335l-7.836-3.771v-6.793l7.836-3.544z"></path>
<path fill="#575757" style="fill: var(--color6, #575757)" d="M16.167 8.090v16.181h2.287v-16.181h-2.287zM17.839 23.749h-1.043v-15.137h1.043v15.137z"></path>
<path fill="#78b035" style="fill: var(--color5, #78b035)" d="M28.59 4.747h5.83v5.83h-5.83v-5.83z"></path>
<path fill="#fa5633" style="fill: var(--color4, #fa5633)" d="M26.25 12.169h5.83v5.83h-5.83v-5.83z"></path>
<path fill="#78b035" style="fill: var(--color5, #78b035)" d="M28.256 22.332h5.83v5.83h-5.83v-5.83z"></path>
<path fill="#575757" style="fill: var(--color6, #575757)" d="M26.945 12.918v6.539h6.539v-6.539h-6.539zM32.816 18.788h-5.215v-5.215h5.215v5.215z"></path>
<path fill="#575757" style="fill: var(--color6, #575757)" d="M0 14.175v4.145h2.942v-4.145h-2.942zM2.247 17.571h-1.538v-2.648h1.538v2.648z"></path>
<path fill="#fa5633" style="fill: var(--color4, #fa5633)" d="M4.921 21.596h1.979v1.738h-1.979v-1.738z"></path>
<path fill="#575757" style="fill: var(--color6, #575757)" d="M3.677 19.122v6.419h2.474v-6.419h-2.474zM5.643 25.113h-1.458v-5.55h1.458v5.55z"></path>
<path fill="#575757" style="fill: var(--color6, #575757)" d="M2.073 5.349h6.018v0.669h-6.018v-0.669z"></path>
<path fill="#575757" style="fill: var(--color6, #575757)" d="M19.764 15.833h7.181v0.669h-7.181v-0.669z"></path>
<path fill="#575757" style="fill: var(--color6, #575757)" d="M19.885 14.282l-0.481-0.468 5.67-5.656h1.872v0.669h-1.605z"></path>
<path fill="#575757" style="fill: var(--color6, #575757)" d="M26.945 24.177h-1.872l-5.59-5.576 0.481-0.481 5.376 5.389h1.605z"></path>
<path fill="#575757" style="fill: var(--color6, #575757)" d="M2.073 8.625h9.628v0.669h-9.628v-0.669z"></path>
<path fill="#575757" style="fill: var(--color6, #575757)" d="M2.073 6.994h9.628v0.669h-9.628v-0.669z"></path>
<path fill="#78b035" style="fill: var(--color5, #78b035)" d="M8.331 25.247v5.443h1.244v1.31l1.364-1.311h6.044v-5.443z"></path>
<path fill="#575757" style="fill: var(--color6, #575757)" d="M26.945 5.349v6.539h6.539v-6.539h-6.539zM32.816 11.219h-5.215v-5.202h5.215v5.202z"></path>
<path fill="#575757" style="fill: var(--color6, #575757)" d="M26.945 20.607v6.539h6.539v-6.539h-6.539zM32.816 26.477h-5.215v-5.215h5.215v5.215z"></path>
<path fill="#575757" style="fill: var(--color6, #575757)" d="M7.074 1.364h0.682v0.682h-0.682v-0.682z"></path>
<path fill="#575757" style="fill: var(--color6, #575757)" d="M8.331 1.364h0.682v0.682h-0.682v-0.682z"></path>
<path fill="#575757" style="fill: var(--color6, #575757)" d="M9.575 1.364h0.682v0.682h-0.682v-0.682z"></path>
<path fill="#c1ced4" opacity="0.5" style="fill: var(--color7, #c1ced4)" d="M5.884 3.41h19.323v25.608h-19.323v-25.608z"></path>
</symbol>
<symbol id="icon-search" viewBox="0 0 32 32">
<title>search</title>
<path d="M31.715 28.953c0.381 0.381 0.381 0.999 0 1.381l-1.381 1.381c-0.382 0.381-1 0.381-1.381 0l-9.668-9.668c-0.105-0.105-0.175-0.229-0.222-0.361-1.983 1.449-4.418 2.314-7.063 2.314-6.627 0-12-5.373-12-12s5.373-12 12-12c6.627 0 12 5.373 12 12 0 2.645-0.865 5.080-2.314 7.063 0.132 0.047 0.256 0.116 0.361 0.222l9.668 9.668zM12 4c-4.418 0-8 3.582-8 8s3.582 8 8 8 8-3.582 8-8c0-4.418-3.582-8-8-8z"></path>
</symbol>
<symbol id="icon-phone" viewBox="0 0 32 32">
<title>phone</title>
<path d="M22 20c-2 2-2 4-4 4s-4-2-6-4-4-4-4-6 2-2 4-4-4-8-6-8-6 6-6 6c0 4 4.109 12.109 8 16s12 8 16 8c0 0 6-4 6-6s-6-8-8-6z"></path>
</symbol>
<symbol id="icon-location" viewBox="0 0 32 32">
<title>location</title>
<path d="M16 0c-5.523 0-10 4.477-10 10 0 10 10 22 10 22s10-12 10-22c0-5.523-4.477-10-10-10zM16 16.125c-3.383 0-6.125-2.742-6.125-6.125s2.742-6.125 6.125-6.125 6.125 2.742 6.125 6.125-2.742 6.125-6.125 6.125zM12.125 10c0-2.14 1.735-3.875 3.875-3.875s3.875 1.735 3.875 3.875c0 2.14-1.735 3.875-3.875 3.875s-3.875-1.735-3.875-3.875z"></path>
</symbol>
<symbol id="icon-envelope" viewBox="0 0 32 32">
<title>envelope</title>
<path d="M16.015 18.861l-4.072-3.343-8.862 10.463h25.876l-8.863-10.567-4.079 3.447zM29.926 6.019h-27.815l13.908 11.698 13.907-11.698zM20.705 14.887l9.291 11.084v-18.952l-9.291 7.868zM2.004 7.019v18.952l9.291-11.084-9.291-7.868z"></path>
</symbol>
</defs>
</svg>
