<?xml version="1.0" encoding="utf-8"?>
<!-- Generator: Adobe Illustrator 21.1.0, SVG Export Plug-In . SVG Version: 6.00 Build 0)  -->
<svg version="1.1" id="Layer_1" xmlns="http://www.w3.org/2000/svg" xmlns:xlink="http://www.w3.org/1999/xlink" x="0px" y="0px"
	 viewBox="0 0 257.3 251.4" style="enable-background:new 0 0 257.3 251.4;" xml:space="preserve">
<style type="text/css">
	.st0{fill:#575757;}
	.st1{opacity:0.5;enable-background:new    ;}
	.st2{fill:#C1CED4;}
	.st3{fill:#78B035;}
	.st4{fill:#FA5633;}
	.st5{fill:#FFFFFF;}
</style>
<title>App</title>
<g>
	<path class="st0" d="M16,37v174h124.5V37H16z M135.8,204.8H20.7V43.3h115.2V204.8z"/>
</g>
<g class="st1">
	<path class="st2" d="M138.9,0H15.6C7,0,0,7,0,15.6v216.8C0,241,7,248,15.6,248h123.3c8.6,0,15.6-7,15.6-15.6V15.6
		C154.5,7,147.5,0,138.9,0z M140.5,211H16V37h124.5V211z"/>
</g>
<g>
	<circle class="st3" cx="78.3" cy="124" r="42.3"/>
</g>
<g>
	<rect x="199.4" y="12" class="st4" width="57.9" height="57.9"/>
</g>
<g>
	<rect x="193.4" y="193.5" class="st4" width="57.9" height="57.9"/>
</g>
<g>
	<rect x="188.4" y="88.6" class="st3" width="57.9" height="57.9"/>
</g>
<g>
	<path class="st0" d="M78.3,91c-18.2,0-33,14.8-33,33s14.8,33,33,33s33-14.8,33-33S96.5,91,78.3,91z M78.3,151.9
		c-15.4,0-28-12.5-28-27.9c0-15.4,12.5-28,27.9-28s28,12.5,28,27.9v0C106.2,139.4,93.7,151.9,78.3,151.9z"/>
</g>
<g>
	<path class="st0" d="M179.5,92.1V157H243V92.1H179.5z M238,152h-53.5V97H238V152z"/>
</g>
<g>
	<path class="st0" d="M179.5,0v64.9H243V0H179.5z M238,60h-53.5V5H238V60z"/>
</g>
<g>
	<path class="st0" d="M179.5,184.2v64.9H243v-64.9H179.5z M238,244.1h-53.5v-55H238V244.1z"/>
</g>
<g>
	<rect x="55.8" y="227" class="st0" width="45" height="5"/>
</g>
<g>
	<rect x="71.5" y="16.1" class="st0" width="13.5" height="5"/>
</g>
<g>
	<rect x="64.5" y="121.5" class="st0" width="27.5" height="5"/>
</g>
<g>
	<rect x="75.8" y="110.3" class="st0" width="5" height="27.5"/>
</g>
<g>
	<path class="st5" d="M207.8,218.3c-4,0-7.3-3.3-7.3-7.3s3.3-7.3,7.3-7.3s7.3,3.3,7.3,7.3S211.9,218.3,207.8,218.3z M207.8,208.7
		c-1.3,0-2.3,1-2.3,2.3s1,2.3,2.3,2.3s2.3-1,2.3-2.3S209.1,208.7,207.8,208.7z"/>
</g>
<g>
	<path class="st5" d="M224.5,234.6c-4,0-7.3-3.3-7.3-7.3s3.3-7.3,7.3-7.3s7.3,3.3,7.3,7.3S228.5,234.6,224.5,234.6z M224.5,225
		c-1.3,0-2.3,1-2.3,2.3s1,2.3,2.3,2.3s2.3-1,2.3-2.3S225.8,225,224.5,225z"/>
</g>
<g>
	
		<rect x="197.5" y="217" transform="matrix(0.7071 -0.7071 0.7071 0.7071 -91.8034 217.2771)" class="st5" width="37.8" height="5"/>
</g>
<g>
	<path class="st0" d="M228.5,131.2H207l-7.2-23.2h-5.5v-5h9.2l3.2,10.4l27.5-0.3L228.5,131.2z M210.7,126.2h14.2l2.5-8l-19.1,0.2
		L210.7,126.2z"/>
</g>
<g>
	<circle class="st0" cx="209" cy="136.7" r="2.3"/>
</g>
<g>
	<circle class="st0" cx="226.8" cy="136.7" r="2.3"/>
</g>
<g>
	<path class="st5" d="M223.6,51.5c-5.1,0-10.6-2.6-10.6-8.3h5c0,2.7,4,3.3,5.6,3.3c5.6,0,5.6-2.1,5.6-3.3c0-2.7,0-3.8-6.9-3.8
		c-3,0-5.3-0.8-7-2.5c-2.4-2.4-2.4-5.7-2.4-6.9c0-4.2,3-8.9,11.5-8.9c3.5,0,6.2,1,7.9,3c2.3,2.6,1.8,5.9,1.8,6.2l-4.9-0.7
		c0,0,0.2-1.3-0.6-2.2c-0.9-1-2.7-1.2-4-1.2c-5.7,0-6.5,2.4-6.5,3.8c0,1,0,2.6,0.9,3.5c0.7,0.7,1.8,1,3.4,1c6,0,11.9,0.7,11.9,8.8
		C234.2,46.3,232.8,51.5,223.6,51.5z"/>
</g>
<g>
	<rect x="221.1" y="19.3" class="st5" width="5" height="4.3"/>
</g>
<g>
	<rect x="221.1" y="49" class="st5" width="5" height="5"/>
</g>
<g>
	<rect x="127.5" y="120.3" class="st0" width="7.1" height="7.1"/>
</g>
<g>
	<rect x="139.6" y="120.3" class="st0" width="7.1" height="7.1"/>
</g>
<g>
	<rect x="151.8" y="120.3" class="st0" width="7.1" height="7.1"/>
</g>
<g>
	<rect x="163.9" y="120.3" class="st0" width="7.1" height="7.1"/>
</g>
<g>
	
		<rect x="112.7" y="155.7" transform="matrix(0.6718 -0.7407 0.7407 0.6718 -79.7979 138.3561)" class="st0" width="7.1" height="7.1"/>
</g>
<g>
	
		<rect x="121.7" y="163.8" transform="matrix(0.6718 -0.7407 0.7407 0.6718 -82.8838 147.6889)" class="st0" width="7.1" height="7.1"/>
</g>
<g>
	
		<rect x="130.7" y="172" transform="matrix(0.6718 -0.7407 0.7407 0.6718 -85.9674 157.0083)" class="st0" width="7.1" height="7.1"/>
</g>
<g>
	
		<rect x="139.6" y="180.1" transform="matrix(0.6718 -0.7407 0.7407 0.6718 -89.0585 166.3309)" class="st0" width="7.1" height="7.1"/>
</g>
<g>
	
		<rect x="148.1" y="187.8" transform="matrix(0.6718 -0.7407 0.7407 0.6718 -91.9751 175.1475)" class="st0" width="7.1" height="7.1"/>
</g>
<g>
	
		<rect x="156.6" y="195.5" transform="matrix(0.6718 -0.7407 0.7407 0.6718 -94.8894 183.9505)" class="st0" width="7.1" height="7.1"/>
</g>
<g>
	
		<rect x="165.1" y="203.2" transform="matrix(0.6718 -0.7407 0.7407 0.6718 -97.806 192.7671)" class="st0" width="7.1" height="7.1"/>
</g>
<g>
	
		<rect x="112.7" y="86.3" transform="matrix(0.7407 -0.6718 0.6718 0.7407 -30.1944 101.4029)" class="st0" width="7.1" height="7.1"/>
</g>
<g>
	
		<rect x="121.7" y="78.1" transform="matrix(0.7407 -0.6718 0.6718 0.7407 -22.3917 105.3258)" class="st0" width="7.1" height="7.1"/>
</g>
<g>
	<rect x="130.7" y="70" transform="matrix(0.7407 -0.6718 0.6718 0.7407 -14.592 109.2493)" class="st0" width="7.1" height="7.1"/>
</g>
<g>
	
		<rect x="139.7" y="61.8" transform="matrix(0.7407 -0.6718 0.6718 0.7407 -6.789 113.1663)" class="st0" width="7.1" height="7.1"/>
</g>
<g>
	
		<rect x="148.2" y="54.1" transform="matrix(0.7407 -0.6718 0.6718 0.7407 0.5827 116.8711)" class="st0" width="7.1" height="7.1"/>
</g>
<g>
	
		<rect x="156.6" y="46.4" transform="matrix(0.7407 -0.6718 0.6718 0.7407 7.9515 120.5765)" class="st0" width="7.1" height="7.1"/>
</g>
<g>
	
		<rect x="165.1" y="38.8" transform="matrix(0.7407 -0.6718 0.6718 0.7407 15.3233 124.2812)" class="st0" width="7.1" height="7.1"/>
</g>
</svg>
