<?xml version="1.0" encoding="utf-8"?>
<!-- Generator: Adobe Illustrator 21.1.0, SVG Export Plug-In . SVG Version: 6.00 Build 0)  -->
<svg version="1.1" id="Layer_1" xmlns="http://www.w3.org/2000/svg" xmlns:xlink="http://www.w3.org/1999/xlink" x="0px" y="0px"
	 viewBox="0 0 255.1 247.5" style="enable-background:new 0 0 255.1 247.5;" xml:space="preserve">
<style type="text/css">
	.st0{fill:#78B035;}
	.st1{fill:#575757;}
	.st2{fill:#FA5633;}
	.st3{opacity:0.5;enable-background:new    ;}
	.st4{fill:#C1CED4;}
</style>
<title>Cme</title>
<g>
	<path class="st0" d="M133.1,70.3c-29.8,0-54,24.2-54,54s24.2,54,54,54s54-24.2,54-54S163,70.3,133.1,70.3L133.1,70.3z M133.1,155.8
		c-17.4,0-31.5-14.1-31.5-31.5s14.1-31.5,31.5-31.5s31.5,14.1,31.5,31.5C164.6,141.7,150.5,155.8,133.1,155.8L133.1,155.8z"/>
</g>
<g>
	<path class="st1" d="M133.1,109.5c-8.2,0-14.8,6.6-14.8,14.8c0,8.2,6.6,14.8,14.8,14.8c8.2,0,14.8-6.6,14.8-14.8l0,0
		C147.9,116.1,141.3,109.5,133.1,109.5z M133.1,134.7c-5.8,0-10.4-4.7-10.4-10.4s4.7-10.4,10.4-10.4c5.8,0,10.4,4.7,10.4,10.4
		S138.9,134.7,133.1,134.7L133.1,134.7z"/>
</g>
<g>
	<path class="st1" d="M228.2,54.5c-8.2,0-14.7,6.6-14.7,14.8S220.1,84,228.3,84c8.1,0,14.7-6.6,14.7-14.8
		C243,61.1,236.4,54.5,228.2,54.5C228.2,54.5,228.2,54.5,228.2,54.5z M228.2,79.7c-5.8,0-10.4-4.7-10.4-10.4s4.7-10.4,10.4-10.4
		c5.8,0,10.4,4.7,10.4,10.4S234,79.7,228.2,79.7L228.2,79.7z"/>
</g>
<g>
	<path class="st1" d="M39.7,54.5c-8.2,0-14.8,6.6-14.8,14.8S31.5,84,39.7,84s14.8-6.6,14.8-14.8S47.9,54.5,39.7,54.5L39.7,54.5z
		 M39.7,79.7c-5.8,0-10.4-4.7-10.4-10.4c0-5.8,4.7-10.4,10.4-10.4c5.8,0,10.4,4.7,10.4,10.4c0,0,0,0,0,0
		C50.1,75,45.5,79.7,39.7,79.7z"/>
</g>
<g>
	<path class="st1" d="M39.7,163.5c-8.2,0-14.8,6.6-14.8,14.8c0,8.2,6.6,14.8,14.8,14.8s14.8-6.6,14.8-14.8l0,0
		C54.5,170.1,47.9,163.5,39.7,163.5z M39.7,188.7c-5.8,0-10.4-4.7-10.4-10.4s4.7-10.4,10.4-10.4s10.4,4.7,10.4,10.4
		S45.5,188.7,39.7,188.7L39.7,188.7z"/>
</g>
<g>
	<path class="st1" d="M228.2,163.5c-8.2,0-14.7,6.6-14.7,14.8c0,8.2,6.6,14.7,14.8,14.7c8.1,0,14.7-6.6,14.7-14.8
		C243,170.1,236.4,163.5,228.2,163.5C228.2,163.5,228.2,163.5,228.2,163.5z M228.2,188.7c-5.8,0-10.4-4.7-10.4-10.4
		s4.7-10.4,10.4-10.4s10.4,4.7,10.4,10.4S234,188.7,228.2,188.7L228.2,188.7z"/>
</g>
<g>
	<path class="st1" d="M133.1,218c-8.2,0-14.8,6.6-14.8,14.8c0,8.2,6.6,14.8,14.8,14.8c8.2,0,14.8-6.6,14.8-14.8c0,0,0,0,0,0
		C147.9,224.6,141.3,218,133.1,218z M133.1,243.2c-5.8,0-10.4-4.7-10.4-10.4s4.7-10.4,10.4-10.4c5.8,0,10.4,4.7,10.4,10.4
		S138.9,243.2,133.1,243.2L133.1,243.2z"/>
</g>
<g>
	<path class="st1" d="M134.1,0c-8.2,0-14.8,6.6-14.8,14.8c0,8.2,6.6,14.8,14.8,14.8c8.2,0,14.8-6.6,14.8-14.8c0,0,0,0,0,0
		C148.9,6.6,142.3,0,134.1,0z M134.1,25.2c-5.8,0-10.4-4.7-10.4-10.4s4.7-10.4,10.4-10.4s10.4,4.7,10.4,10.4S139.9,25.2,134.1,25.2
		L134.1,25.2z"/>
</g>
<g>
	<circle class="st2" cx="102.6" cy="209.8" r="12"/>
</g>
<g>
	<circle class="st2" cx="169.7" cy="17.9" r="13.5"/>
</g>
<g class="st3">
	<circle class="st4" cx="15.8" cy="136.3" r="15.8"/>
</g>
<g class="st3">
	<circle class="st4" cx="73.6" cy="37.4" r="9.4"/>
</g>
<g class="st3">
	<circle class="st4" cx="47.8" cy="37.4" r="4.3"/>
</g>
<g>
	<circle class="st2" cx="79.7" cy="63.3" r="3.3"/>
</g>
<g>
	<circle class="st2" cx="40.6" cy="107.6" r="4"/>
</g>
<g>
	<circle class="st2" cx="89" cy="235.4" r="4"/>
</g>
<g>
	<circle class="st2" cx="178.1" cy="214.8" r="7"/>
</g>
<g>
	<circle class="st2" cx="240.1" cy="130.4" r="8.6"/>
</g>
<g class="st3">
	<circle class="st4" cx="250.6" cy="157.9" r="4.4"/>
</g>
<g class="st3">
	<circle class="st4" cx="174.1" cy="46.8" r="4.7"/>
</g>
<g>
	<path class="st1" d="M132,156.9c-24,0-52.3-7.5-81.5-31.8l-2.3-1.9l2.2-1.9c0.8-0.7,20.2-17.3,50.4-25.8
		c28-7.8,70.6-9.7,115.1,25.7l2.3,1.8l-2.2,2c-0.8,0.7-20.2,18.1-50.5,26.9C156,154.9,144.6,156.9,132,156.9z M56.1,123.3
		c33.7,27,70.1,35.1,108.2,23.9c23.3-6.8,40.3-19.2,46.2-23.9c-33.6-25.8-70-33.6-108-23C79.1,106.9,62.1,118.7,56.1,123.3z"/>
</g>
<g>
	<rect x="130.5" y="34.3" class="st1" width="5.8" height="5.8"/>
</g>
<g>
	<rect x="130.5" y="44.7" class="st1" width="5.8" height="5.8"/>
</g>
<g>
	<rect x="130.5" y="55.2" class="st1" width="5.8" height="5.8"/>
</g>
<g>
	<rect x="130.5" y="185.8" class="st1" width="5.8" height="5.8"/>
</g>
<g>
	<rect x="130.5" y="196.2" class="st1" width="5.8" height="5.8"/>
</g>
<g>
	<rect x="130.5" y="206.7" class="st1" width="5.8" height="5.8"/>
</g>
<g>
	
		<rect x="187" y="153.2" transform="matrix(0.4985 -0.8669 0.8669 0.4985 -40.0607 242.8842)" class="st1" width="5.8" height="5.8"/>
</g>
<g>
	
		<rect x="196" y="158.4" transform="matrix(0.4985 -0.8669 0.8669 0.4985 -40.0247 253.3551)" class="st1" width="5.8" height="5.8"/>
</g>
<g>
	
		<rect x="205.1" y="163.6" transform="matrix(0.4985 -0.8669 0.8669 0.4985 -40.0074 263.841)" class="st1" width="5.8" height="5.8"/>
</g>
<g>
	<rect x="56.3" y="78" transform="matrix(0.4985 -0.8669 0.8669 0.4985 -40.4581 91.9698)" class="st1" width="5.8" height="5.8"/>
</g>
<g>
	
		<rect x="65.4" y="83.2" transform="matrix(0.4985 -0.8669 0.8669 0.4985 -40.4221 102.4407)" class="st1" width="5.8" height="5.8"/>
</g>
<g>
	
		<rect x="74.5" y="88.5" transform="matrix(0.4985 -0.8669 0.8669 0.4985 -40.4048 112.9167)" class="st1" width="5.8" height="5.8"/>
</g>
<g>
	
		<rect x="56.3" y="163.6" transform="matrix(0.8669 -0.4985 0.4985 0.8669 -75.1022 51.7005)" class="st1" width="5.8" height="5.8"/>
</g>
<g>
	
		<rect x="65.4" y="158.3" transform="matrix(0.8669 -0.4985 0.4985 0.8669 -71.2923 55.5303)" class="st1" width="5.8" height="5.8"/>
</g>
<g>
	
		<rect x="74.5" y="153.1" transform="matrix(0.8669 -0.4985 0.4985 0.8669 -67.4874 59.3542)" class="st1" width="5.8" height="5.8"/>
</g>
<g>
	
		<rect x="187" y="88.5" transform="matrix(0.8669 -0.4985 0.4985 0.8669 -20.2679 106.8245)" class="st1" width="5.8" height="5.8"/>
</g>
<g>
	
		<rect x="196.1" y="83.2" transform="matrix(0.8669 -0.4985 0.4985 0.8669 -16.4616 110.6506)" class="st1" width="5.8" height="5.8"/>
</g>
<g>
	
		<rect x="205.1" y="78" transform="matrix(0.8669 -0.4985 0.4985 0.8669 -12.6567 114.4745)" class="st1" width="5.8" height="5.8"/>
</g>
</svg>
