<?xml version="1.0" encoding="utf-8"?>
<!-- Generator: Adobe Illustrator 21.1.0, SVG Export Plug-In . SVG Version: 6.00 Build 0)  -->
<svg version="1.1" id="Layer_1" xmlns="http://www.w3.org/2000/svg" xmlns:xlink="http://www.w3.org/1999/xlink" x="0px" y="0px"
	 viewBox="0 0 254.7 251" style="enable-background:new 0 0 254.7 251;" xml:space="preserve">
<style type="text/css">
	.st0{opacity:0.5;enable-background:new    ;}
	.st1{fill:#C1CED4;}
	.st2{fill:#78B035;}
	.st3{fill:#575757;}
	.st4{fill:#FA5633;}
</style>
<title>Cr</title>
<g class="st0">
	<polygon class="st1" points="12.3,37.7 12.3,81.3 22.3,81.3 22.3,91.8 33.2,81.3 81.7,81.3 81.7,37.7 	"/>
</g>
<g>
	<circle class="st2" cx="103.1" cy="15.8" r="15.8"/>
</g>
<g class="st0">
	<circle class="st1" cx="80.5" cy="185.8" r="7.9"/>
</g>
<g>
	<path class="st3" d="M40.5,132c-13.3,0-24.1,10.8-24.1,24.1c0,13.3,10.8,24.1,24.1,24.1s24.1-10.8,24.1-24.1S53.8,132,40.5,132
		L40.5,132z M40.5,175.3c-10.6,0-19.2-8.6-19.2-19.2s8.6-19.2,19.2-19.2s19.2,8.6,19.2,19.2l0,0C59.7,166.7,51.1,175.3,40.5,175.3
		C40.5,175.4,40.5,175.4,40.5,175.3L40.5,175.3z"/>
</g>
<g>
	<rect x="21" y="61" class="st3" width="37" height="5"/>
</g>
<g>
	<polygon class="st3" points="254.5,190.6 189,190.6 189,185.6 249.5,185.6 249.5,145.1 254.5,145.1 	"/>
</g>
<g>
	<rect x="96.3" y="203.3" class="st3" width="74.2" height="5"/>
</g>
<g>
	<rect x="96.3" y="214" class="st3" width="74.2" height="5"/>
</g>
<g>
	<rect x="96.3" y="224.6" class="st3" width="74.2" height="5"/>
</g>
<g>
	<rect x="96.3" y="235.3" class="st3" width="74.2" height="5"/>
</g>
<g>
	<rect x="115" y="246" class="st3" width="36.7" height="5"/>
</g>
<g>
	<rect y="50" class="st3" width="65.8" height="5"/>
</g>
<g>
	<rect x="102.8" y="205.8" class="st3" width="5" height="32"/>
</g>
<g>
	<rect x="159.2" y="205.8" class="st3" width="5" height="32"/>
</g>
<g>
	<polygon class="st3" points="50.8,156.8 35.7,148.1 35.7,165.5 	"/>
</g>
<g>
	<path class="st3" d="M231,77.5c-5.2,0-9.3,4.2-9.3,9.3s4.2,9.3,9.3,9.3s9.3-4.2,9.3-9.3S236.2,77.5,231,77.5L231,77.5z M231,91.8
		c-2.8,0-5-2.2-5-5s2.2-5,5-5s5,2.2,5,5S233.8,91.8,231,91.8z"/>
</g>
<g>
	<path class="st3" d="M240.5,86.8h-5V52.5l5-0.5c0,0.1,1.2,6.1,5.3,6.1c6.4,0,8.8,5.3,8.9,8.9l-5,0.2c0-0.9-0.4-4-3.9-4
		c-2.1,0-3.8-0.7-5.3-1.7V86.8z"/>
</g>
<g>
	<path class="st4" d="M134.1,141.2c-0.5,5.9-5.7,10.2-11.6,9.7c-5.1-0.5-9.2-4.5-9.7-9.7c-3.4,4.8-10.1,5.9-14.9,2.5
		c-4.2-3-5.6-8.5-3.5-13.1c-5.4,2.4-11.7,0.1-14.2-5.3c-2.1-4.7-0.6-10.2,3.5-13.1c-5.9-0.5-10.2-5.7-9.7-11.6
		c0.5-5.1,4.5-9.2,9.7-9.7c-4.8-3.4-6-10.1-2.6-14.9c3-4.2,8.5-5.7,13.2-3.5C92,67,94.3,60.7,99.7,58.2c4.7-2.1,10.2-0.6,13.1,3.5
		c0.5-5.9,5.7-10.2,11.6-9.7c5.1,0.5,9.2,4.5,9.7,9.7V141.2z"/>
</g>
<g>
	<path class="st4" d="M143.3,141.2c0.5,5.9,5.7,10.2,11.6,9.7c5.1-0.5,9.2-4.5,9.7-9.7c3.5,4.7,10.2,5.7,15,2.2
		c4-3,5.4-8.3,3.4-12.8c5.4,2.4,11.7,0.1,14.2-5.3c2.1-4.7,0.6-10.2-3.5-13.1c5.9-0.5,10.2-5.7,9.7-11.6c-0.5-5.1-4.5-9.2-9.7-9.7
		c4.8-3.4,6-10.1,2.6-14.9c-3-4.2-8.5-5.7-13.2-3.5c2.4-5.4,0.1-11.7-5.3-14.2c-4.7-2.1-10.2-0.6-13.1,3.5
		c-0.5-5.9-5.7-10.2-11.6-9.7c-5.1,0.5-9.2,4.5-9.7,9.7L143.3,141.2z"/>
</g>
<g>
	<path class="st3" d="M116.6,146.4c-5.3,0-10-3.1-12.2-7.9c-6,4.3-14.4,2.9-18.7-3.1c-1.9-2.6-2.7-5.9-2.4-9.1
		c-5.2,0.5-10.3-2.1-12.9-6.6l4-2.3c2.2,3.9,7.1,5.5,11.2,3.6l5.7-2.6l-2.6,5.7c-2,4.4,0,9.5,4.4,11.5c3.8,1.7,8.2,0.5,10.6-2.8
		l3.6-5.1l0.6,6.3c0.5,4.8,4.7,8.3,9.5,7.8c4.1-0.4,7.4-3.6,7.8-7.7V52.2c-0.5-4.8-4.8-8.2-9.6-7.7c-4.1,0.4-7.3,3.7-7.7,7.8
		l-0.6,6.3l-3.6-5.1c-2.8-3.9-8.3-4.8-12.2-1.9c-3.3,2.4-4.5,6.8-2.8,10.6l2.6,5.7l-5.7-2.6c-4.1-1.9-8.9-0.3-11.2,3.6l-4-2.3
		c2.6-4.6,7.7-7.2,12.9-6.6c-0.7-7.4,4.7-13.9,12-14.6c3.2-0.3,6.4,0.6,9.1,2.4c3-6.7,10.9-9.7,17.7-6.7c4.4,2,7.4,6.2,7.8,10.9
		v82.4C129.3,141.2,123.5,146.5,116.6,146.4z"/>
</g>
<g>
	<path class="st3" d="M116.5,66.7c-7.4,0-13.4-6-13.4-13.4c0-7.4,6-13.4,13.4-13.4v4.7c-4.8,0.2-8.6,4.2-8.5,9.1
		c0.2,4.6,3.9,8.3,8.5,8.5V66.7z"/>
</g>
<g>
	<path class="st3" d="M116.5,88.9v-4.6c4.8,0,8.8-3.9,8.8-8.8h4.6C129.9,82.9,123.9,88.9,116.5,88.9z"/>
</g>
<g>
	<path class="st3" d="M76.7,106.5c-7.4,0-13.4-6-13.4-13.4c0-7.4,6-13.4,13.4-13.4c0,0,0,0,0,0v4.7c-4.8,0-8.8,3.9-8.8,8.8
		c0,4.8,3.9,8.8,8.8,8.8V106.5z"/>
</g>
<g>
	<path class="st3" d="M72.6,82.8c-5.2-5.2-5.2-13.7,0-19c2.5-2.5,5.9-3.9,9.5-3.9c5.9,0,11.1,3.9,12.8,9.5l-4.4,1.3
		c-1.4-4.6-6.3-7.3-11-5.8c-3.7,1.1-6.2,4.5-6.2,8.4c0,2.3,0.9,4.6,2.6,6.2L72.6,82.8z"/>
</g>
<g>
	<path class="st3" d="M82,126.6c-7.4,0-13.4-6-13.4-13.4c0-5.4,3.2-10.3,8.2-12.4l1.8,4.3c-4.5,1.9-6.5,7.1-4.6,11.5
		c1.9,4.5,7.1,6.5,11.5,4.6c2.1-0.9,3.8-2.6,4.7-4.7l4.3,1.8C92.3,123.4,87.4,126.6,82,126.6z"/>
</g>
<g>
	<path class="st3" d="M116.5,146.4c-7.4,0-13.4-6-13.4-13.4c0-7.4,6-13.4,13.4-13.4c0,0,0,0,0,0v4.7c-4.8,0-8.8,3.9-8.8,8.8
		s3.9,8.8,8.8,8.8V146.4z"/>
</g>
<g>
	<path class="st3" d="M129.9,110.8h-4.7c0-4.8-3.9-8.8-8.8-8.8v-4.6C123.9,97.4,129.9,103.4,129.9,110.8z"/>
</g>
<g>
	<path class="st3" d="M112.3,107h-4.7c0-4.8-3.9-8.8-8.8-8.8v-4.6C106.3,93.6,112.3,99.6,112.3,107z"/>
</g>
<g>
	<path class="st3" d="M98.9,90.7V86c4.8,0,8.8-3.9,8.8-8.8h4.7C112.3,84.6,106.3,90.7,98.9,90.7C98.9,90.7,98.9,90.7,98.9,90.7z"/>
</g>
<g>
	<path class="st3" d="M145.6,146.4c-6.9,0-12.7-5.2-13.3-12.1V51.9c0.7-7.3,7.2-12.7,14.5-12.1c4.8,0.4,9,3.4,10.9,7.8
		c6-4.3,14.4-2.9,18.7,3.1c1.9,2.6,2.7,5.9,2.4,9.1c5.2-0.5,10.3,2.1,12.9,6.6l-4,2.3c-2.2-3.9-7.1-5.5-11.2-3.6l-5.7,2.6l2.6-5.7
		c2-4.4,0-9.5-4.4-11.5c-3.8-1.7-8.2-0.5-10.6,2.8l-3.6,5.1l-0.6-6.3c-0.5-4.8-4.7-8.3-9.5-7.8c-4.1,0.4-7.4,3.6-7.8,7.7V134
		c0.5,4.8,4.8,8.2,9.6,7.7c4.1-0.4,7.3-3.7,7.7-7.8l0.6-6.3l3.6,5.1c2.8,3.9,8.3,4.8,12.2,1.9c3.3-2.4,4.5-6.8,2.8-10.6l-2.6-5.7
		l5.7,2.6c4.1,1.9,8.9,0.3,11.2-3.6l4,2.3c-2.6,4.6-7.7,7.2-12.9,6.6c0.7,7.4-4.7,13.9-12,14.6c-3.2,0.3-6.4-0.6-9.1-2.4
		C155.6,143.4,150.8,146.4,145.6,146.4z"/>
</g>
<g>
	<path class="st3" d="M145.7,66.7V62c4.8,0.2,8.9-3.6,9.1-8.5c0.2-4.8-3.6-8.9-8.5-9.1c-0.2,0-0.4,0-0.6,0v-4.6
		c7.4,0,13.4,6,13.4,13.4C159.1,60.7,153.1,66.7,145.7,66.7C145.7,66.7,145.7,66.7,145.7,66.7L145.7,66.7z"/>
</g>
<g>
	<path class="st3" d="M145.7,88.9c-7.4,0-13.4-6-13.4-13.4h4.6c0,4.8,3.9,8.8,8.8,8.8L145.7,88.9z"/>
</g>
<g>
	<path class="st3" d="M185.5,106.5v-4.7c4.8,0,8.8-3.9,8.8-8.8c0-4.8-3.9-8.8-8.8-8.8v-4.6c7.4,0,13.4,6,13.4,13.4
		C198.9,100.5,192.9,106.5,185.5,106.5C185.5,106.5,185.5,106.5,185.5,106.5z"/>
</g>
<g>
	<path class="st3" d="M189.6,82.8l-3.3-3.3c3.4-3.4,3.5-9,0.1-12.4c-1.7-1.7-3.9-2.6-6.3-2.6c-3.9,0-7.3,2.5-8.4,6.2l-4.4-1.3
		c2.1-7.1,9.6-11.1,16.7-9c5.7,1.7,9.6,6.9,9.6,12.9C193.6,76.9,192.1,80.3,189.6,82.8z"/>
</g>
<g>
	<path class="st3" d="M180.1,126.6c-5.4,0-10.3-3.2-12.4-8.2l4.3-1.8c1.9,4.5,7,6.6,11.5,4.7c4.5-1.9,6.6-7,4.7-11.5
		c-0.9-2.1-2.6-3.8-4.7-4.7l1.8-4.3c6.8,2.9,10,10.8,7.1,17.6C190.4,123.4,185.5,126.6,180.1,126.6z"/>
</g>
<g>
	<path class="st3" d="M145.7,146.4v-4.6c4.8,0,8.8-3.9,8.8-8.8c0-4.8-3.9-8.8-8.8-8.8v-4.7c7.4,0,13.4,6,13.4,13.4
		C159.1,140.4,153.1,146.4,145.7,146.4L145.7,146.4z"/>
</g>
<g>
	<path class="st3" d="M136.9,110.8h-4.6c0-7.4,6-13.4,13.4-13.4v4.6C140.8,102,136.9,105.9,136.9,110.8
		C136.9,110.8,136.9,110.8,136.9,110.8z"/>
</g>
<g>
	<path class="st3" d="M154.5,107h-4.6c0-7.4,6-13.4,13.4-13.4v4.7C158.4,98.2,154.5,102.2,154.5,107z"/>
</g>
<g>
	<path class="st3" d="M163.3,90.7c-7.4,0-13.4-6-13.4-13.4h4.6c0,4.8,3.9,8.7,8.8,8.7V90.7z"/>
</g>
<g>
	<path class="st2" d="M183.8,135v42.8h63.1V135H183.8z M213.3,145.4c2.3,0,4.1,1.8,4.1,4.1c0,2.3-1.8,4.1-4.1,4.1s-4.1-1.8-4.1-4.1
		c0,0,0,0,0,0C209.2,147.2,211.1,145.4,213.3,145.4L213.3,145.4z M221.8,172h-25.3l12.7-13.7l4,4.3l11.1-12l19.8,21.3H221.8z"/>
</g>
<g class="st0">
	<path class="st1" d="M194.9,145.8c27.6-34,22.5-84-11.5-111.6s-84-22.5-111.6,11.5c-23.7,29.2-23.7,70.9,0,100.1h-0.1l0.3,0.2
		c3.1,3.8,6.6,7.3,10.4,10.5c9.1,10.4,20.7,27.6,20.7,46.9h60.7c0-19.3,11.6-36.5,20.7-47c3.8-3.2,7.2-6.7,10.4-10.5l0.3-0.2
		L194.9,145.8z M133.3,35.5c33.3,0,60.3,27,60.3,60.3s-27,60.3-60.3,60.3S73,129.1,73,95.8l0,0C73,62.5,100,35.5,133.3,35.5z"/>
</g>
<g>
	<path class="st3" d="M159.5,8.5v25.5h37.2V8.5H159.5z M191.7,29.1h-27.3V13.5h27.3V29.1z"/>
</g>
</svg>
