<?xml version="1.0" encoding="utf-8"?>
<!-- Generator: Adobe Illustrator 21.1.0, SVG Export Plug-In . SVG Version: 6.00 Build 0)  -->
<svg version="1.1" id="Layer_1" xmlns="http://www.w3.org/2000/svg" xmlns:xlink="http://www.w3.org/1999/xlink" x="0px" y="0px"
	 viewBox="0 0 245.8 227.5" style="enable-background:new 0 0 245.8 227.5;" xml:space="preserve">
<style type="text/css">
	.st0{fill:#575757;}
	.st1{fill:#78B035;}
	.st2{fill:#FA5633;}
	.st3{opacity:0.5;enable-background:new    ;}
	.st4{fill:#C1CED4;}
</style>
<title>Ds</title>
<g>
	<path class="st0" d="M56.8,33.8c-8.2,0-14.8,6.6-14.8,14.8s6.6,14.8,14.8,14.8s14.8-6.6,14.8-14.8S64.9,33.8,56.8,33.8L56.8,33.8z
		 M56.8,59c-5.8,0-10.4-4.7-10.4-10.4S51,38.1,56.8,38.1c5.8,0,10.4,4.7,10.4,10.4c0,0,0,0,0,0C67.2,54.3,62.6,59,56.8,59
		C56.8,59,56.8,59,56.8,59L56.8,59z"/>
</g>
<g>
	<path class="st0" d="M45.3,205.3v15.9c0,3.5,2.8,6.3,6.3,6.3c0,0,0,0,0,0H221c3.5,0,6.3-2.8,6.3-6.3v0v-15.9H45.3z M221.5,221H51.2
		v-10.3h170.3V221z"/>
</g>
<g>
	<path class="st1" d="M0,53v71.4h16.4v17.1l17.8-17.1h79.4V53H0z M14.9,106.1H7.7v-9.8h7.2V106.1z M23.9,106.1h-7.3V88.6h7.3V106.1z
		 M32.9,106.1h-7.3V92.4h7.3V106.1z M41.9,106.1h-7.3V72h7.3V106.1z M50.9,106.1h-7.3V81.3h7.3V106.1z M59.9,106.1h-7.3V65.5h7.3
		V106.1z M68.9,106.1h-7.3V84.5h7.3V106.1z M77.9,106.1h-7.3V88.6h7.3V106.1z M86.9,106.1h-7.3V72h7.3V106.1z M95.9,106.1h-7.3V56.8
		h7.3V106.1z"/>
</g>
<g>
	<circle class="st2" cx="216.1" cy="74.8" r="13.8"/>
</g>
<g>
	<path class="st1" d="M182.6,68.3l-13.8-15.8c4.3-3.8,5.9-9.8,4-15.2l19.8-7C197.4,43.8,193.5,58.9,182.6,68.3L182.6,68.3z"/>
</g>
<g class="st3">
	<path class="st4" d="M221,82H51.7c-3.5,0-6.3,2.8-6.3,6.3v116.9h182V88.3C227.3,84.8,224.5,82,221,82C221,82,221,82,221,82z
		 M215.3,193.3h-158v-99h158V193.3z"/>
</g>
<g class="st3">
	<circle class="st4" cx="95.8" cy="37.5" r="5.5"/>
</g>
<g>
	<path class="st2" d="M160.6,71.5v-18c3.1,0,4.8-0.3,7.3-2L180,65.3C174.3,69.2,167.5,71.4,160.6,71.5z"/>
</g>
<g>
	<polygon class="st0" points="25.8,197 22.3,193.5 65.5,150.3 85.1,169.9 108.3,146.7 118.2,156.6 143.9,130.9 157.3,144.3 
		171.4,130.2 180.5,139.3 210.3,109.4 223.5,122.6 241.4,104.7 245,108.2 223.5,129.7 210.3,116.5 180.5,146.3 171.4,137.3 
		157.3,151.3 143.9,138 118.2,163.7 108.3,153.8 85.1,177 65.5,157.4 	"/>
</g>
<g>
	<polygon class="st0" points="245.1,124.2 241.7,124.1 242.3,107.4 225.5,108 225.4,104.6 245.8,103.8 	"/>
</g>
<g>
	<circle class="st1" cx="171.8" cy="109.3" r="7.5"/>
</g>
<g class="st3">
	<circle class="st4" cx="161.6" cy="43" r="24.5"/>
</g>
<g>
	<path class="st0" d="M164.8,46.9L128,16l1.7-1.9c8.1-9,19.7-14.1,31.8-14.1c0,0,0.1,0,0.1,0c2.1,0,4.2,0.2,6.3,0.5l2.4,0.4
		L164.8,46.9z M135.3,15.6l25.6,21.5l3.9-32C163.8,5,162.7,5,161.6,5c0,0-0.1,0-0.1,0C151.7,5,142.3,8.8,135.3,15.6z"/>
</g>
<g>
	<polygon class="st2" points="45.3,205.3 75.3,175.3 90.3,190.3 105.2,175.4 111.7,181.9 131.7,161.9 142.2,172.4 151.3,163.3 
		156.1,168 175.7,148.4 187.1,159.8 205.6,141.3 205.6,205.3 	"/>
</g>
</svg>
