<?xml version="1.0" encoding="utf-8"?>
<!-- Generator: Adobe Illustrator 21.1.0, SVG Export Plug-In . SVG Version: 6.00 Build 0)  -->
<svg version="1.1" id="Layer_1" xmlns="http://www.w3.org/2000/svg" xmlns:xlink="http://www.w3.org/1999/xlink" x="0px" y="0px"
	 viewBox="0 0 257.4 239.3" style="enable-background:new 0 0 257.4 239.3;" xml:space="preserve">
<style type="text/css">
	.st0{fill:#575757;}
	.st1{fill:#FA5633;}
	.st2{fill:#E2E2E2;}
	.st3{fill:#78B035;}
	.st4{opacity:0.5;enable-background:new    ;}
	.st5{fill:#C1CED4;}
</style>
<title>Pr</title>
<g>
	<path class="st0" d="M44,0v25.5h144.5V0H44z M184,20H48V5h136V20z"/>
</g>
<g>
	<rect x="11.5" y="95.5" class="st1" width="50.8" height="50.8"/>
</g>
<g>
	<polygon class="st2" points="120.9,174.5 62.3,146.3 62.3,95.5 120.9,69 	"/>
</g>
<g>
	<path class="st0" d="M120.9,60.5v121H138v-121H120.9z M133.4,177.6h-7.8V64.4h7.8V177.6z"/>
</g>
<g>
	<rect x="213.8" y="35.5" class="st3" width="43.6" height="43.6"/>
</g>
<g>
	<rect x="196.3" y="91" class="st1" width="43.6" height="43.6"/>
</g>
<g>
	<rect x="211.3" y="167" class="st3" width="43.6" height="43.6"/>
</g>
<g>
	<path class="st0" d="M201.5,96.6v48.9h48.9V96.6H201.5z M245.4,140.5h-39v-39h39V140.5z"/>
</g>
<g>
	<path class="st0" d="M0,106v31h22v-31H0z M16.8,131.4H5.3v-19.8h11.5V131.4z"/>
</g>
<g>
	<rect x="36.8" y="161.5" class="st1" width="14.8" height="13"/>
</g>
<g>
	<path class="st0" d="M27.5,143v48H46v-48H27.5z M42.2,187.8H31.3v-41.5h10.9V187.8z"/>
</g>
<g>
	<rect x="15.5" y="40" class="st0" width="45" height="5"/>
</g>
<g>
	<rect x="147.8" y="118.4" class="st0" width="53.7" height="5"/>
</g>
<g>
	<polygon class="st0" points="148.7,106.8 145.1,103.3 187.5,61 201.5,61 201.5,66 189.5,66 	"/>
</g>
<g>
	<polygon class="st0" points="201.5,180.8 187.5,180.8 145.7,139.1 149.3,135.5 189.5,175.8 201.5,175.8 	"/>
</g>
<g>
	<rect x="15.5" y="64.5" class="st0" width="72" height="5"/>
</g>
<g>
	<rect x="15.5" y="52.3" class="st0" width="72" height="5"/>
</g>
<g>
	<polygon class="st3" points="62.3,188.8 62.3,229.5 71.6,229.5 71.6,239.3 81.8,229.5 127,229.5 127,188.8 	"/>
</g>
<g>
	<path class="st0" d="M201.5,40v48.9h48.9V40H201.5z M245.4,83.9h-39V45h39V83.9z"/>
</g>
<g>
	<path class="st0" d="M201.5,154.1V203h48.9v-48.9H201.5z M245.4,198h-39v-39h39V198z"/>
</g>
<g>
	<rect x="52.9" y="10.2" class="st0" width="5.1" height="5.1"/>
</g>
<g>
	<rect x="62.3" y="10.2" class="st0" width="5.1" height="5.1"/>
</g>
<g>
	<rect x="71.6" y="10.2" class="st0" width="5.1" height="5.1"/>
</g>
<g class="st4">
	<rect x="44" y="25.5" class="st5" width="144.5" height="191.5"/>
</g>
</svg>
